<svg width="120" height="40" viewBox="0 0 120 40" fill="none" xmlns="http://www.w3.org/2000/svg">
<path d="M9.17713 3.05253C11.5508 2.09177 14.1784 1.78419 16.7108 2.14857C20.2355 2.64154 23.5412 4.49822 25.8225 7.23475C27.0307 8.67188 27.9605 10.3442 28.5382 12.1329C29.2542 14.3352 29.4247 16.7089 29.057 18.9948C28.7305 21.0407 27.9594 23.0147 26.8078 24.7353C25.9272 26.0556 24.8274 27.2275 23.5738 28.1979C23.4658 28.282 23.3707 28.3806 23.2756 28.4787C21.7676 30.0149 19.7835 31.0576 17.6764 31.4692C17.4065 31.5244 17.1345 31.5678 16.8625 31.6074C16.9518 31.9889 17.0811 32.3597 17.2291 32.7225C17.1308 32.82 17.0325 32.9186 16.9342 33.0172C16.6686 32.8682 16.2961 32.9518 16.1577 33.2337C15.9787 33.5445 16.1967 33.9796 16.5499 34.0257C16.8358 34.0798 17.0848 33.8896 17.2639 33.6886C17.3782 34.1586 17.3413 34.6697 17.1062 35.0973C16.644 35.9649 15.7922 36.5602 14.895 36.9112C14.7662 36.953 14.6299 37.0419 14.4937 36.9771C13.5494 36.6475 12.6468 36.057 12.1338 35.1761C11.8667 34.733 11.8084 34.1907 11.934 33.6924C12.113 33.9158 12.401 34.0959 12.6955 34.0144C13.0065 33.9394 13.1908 33.5606 13.053 33.2696C12.9365 32.9818 12.5662 32.8586 12.2963 33.0049C12.19 32.9084 12.089 32.8061 11.988 32.7037C12.2177 32.3078 12.4326 31.9011 12.5865 31.4686C12.0291 31.3593 11.4851 31.1932 10.94 31.04C10.224 31.3004 9.42668 31.3454 8.69673 31.115C7.57881 30.7822 6.67838 29.8391 6.37699 28.7117C4.12833 27.1798 2.32214 25.0043 1.23147 22.5073C0.268527 20.3205 -0.140272 17.8942 0.042485 15.5113C0.231655 12.9581 1.11551 10.4621 2.56849 8.35734C4.19086 5.99161 6.5186 4.11992 9.17713 3.05253ZM12.852 2.52151C10.2523 2.84194 7.75248 3.91416 5.71864 5.56722C3.42616 7.41533 1.72631 9.99219 0.945048 12.837C0.251427 15.3388 0.262649 18.0314 0.976042 20.5273C1.83051 23.5575 3.73183 26.2737 6.27386 28.1212C6.21027 27.4139 6.38127 26.6954 6.7377 26.084C6.56509 25.92 6.39944 25.7491 6.24233 25.5701C6.28027 25.5422 6.31821 25.5144 6.35669 25.4871C6.51914 25.6291 6.69548 25.7544 6.87343 25.8777C7.23734 25.359 7.73966 24.9421 8.31732 24.6844C7.17215 23.7847 6.21989 22.638 5.55192 21.3413C4.66752 19.6614 4.27208 17.7265 4.42491 15.8328C4.57454 13.8272 5.34297 11.8751 6.59128 10.3014C7.90852 8.62687 9.7564 7.37782 11.8031 6.79483C13.4938 6.3099 15.3091 6.26971 17.0186 6.6823C18.7521 7.09812 20.3697 7.98118 21.6613 9.21307C22.7578 10.2537 23.623 11.5397 24.1675 12.9527C24.7462 14.445 24.961 16.0756 24.7991 17.6675C24.6116 19.5687 23.8688 21.4072 22.6937 22.9102C21.439 24.5242 19.6953 25.7528 17.7491 26.3733C17.5359 26.4312 17.3478 26.562 17.2195 26.742C16.8893 27.2001 16.7605 27.7719 16.707 28.3259C18.844 28.8093 21.1258 28.7176 23.1874 27.9578C25.4169 26.2919 27.1301 23.9396 28.0358 21.3038C28.7925 19.1106 28.9988 16.7304 28.644 14.438C28.3324 12.4153 27.5715 10.4648 26.4381 8.7635C24.8483 6.36723 22.5211 4.46929 19.8508 3.41047C17.6427 2.52687 15.2097 2.22519 12.852 2.52151ZM12.9584 6.95397C11.0512 7.27655 9.25194 8.19391 7.85722 9.53565C6.38287 10.9417 5.36061 12.8187 4.99296 14.8265C4.6766 16.5112 4.81127 18.2789 5.38626 19.894C6.01308 21.6821 7.17001 23.2762 8.66894 24.4309C8.72398 24.4679 8.78169 24.5354 8.85597 24.5016C9.43043 24.3559 10.0412 24.3564 10.6125 24.5177C11.5332 24.768 12.339 25.4185 12.7703 26.2731C14.748 26.66 16.8444 26.4125 18.6762 25.5701C20.4119 24.7798 21.9044 23.4675 22.9181 21.8492C24.1167 19.9561 24.6265 17.6413 24.3444 15.4176C24.1488 13.8106 23.5423 12.2572 22.6034 10.9412C21.5704 9.48689 20.1388 8.31983 18.5031 7.61413C16.7717 6.8586 14.818 6.62979 12.9584 6.95397ZM7.22933 26.1108C7.41101 26.2201 7.59377 26.3278 7.77867 26.4323C8.23342 25.8091 8.99063 25.4153 9.76441 25.4367C10.1379 25.4356 10.5013 25.5417 10.8401 25.6939C11.2847 25.8788 11.7416 26.0331 12.2081 26.151C11.6615 25.3258 10.6942 24.7974 9.70403 24.8044C8.72986 24.7948 7.7776 25.3065 7.22933 26.1108ZM8.15914 26.6391C8.70421 26.9124 9.25622 27.1723 9.81838 27.4091C9.98083 27.4815 10.1753 27.5441 10.2555 27.7199C10.3934 27.9776 10.2373 28.3345 9.95037 28.3993C9.73876 28.4647 9.54852 28.3233 9.37752 28.2204C8.86131 27.8839 8.37236 27.5072 7.90157 27.1096C7.68087 27.6213 7.71133 28.2322 7.95875 28.7289C8.19067 29.1956 8.61497 29.5316 9.06652 29.7711C10.3672 30.4838 11.802 30.9355 13.2614 31.1761C14.414 31.37 15.5923 31.3529 16.7493 31.2088C17.965 31.0539 19.162 30.7152 20.258 30.1606C21.0804 29.7497 21.8381 29.216 22.5232 28.6035C20.6711 29.1158 18.6997 29.164 16.8209 28.7685C14.8522 28.3667 13.0033 27.512 11.3007 26.4596C10.9085 26.2421 10.5403 25.9473 10.085 25.8788C9.3663 25.741 8.59306 26.0497 8.15914 26.6391ZM7.05405 26.3867C6.75159 26.9622 6.62655 27.6326 6.72861 28.2772C6.86595 29.262 7.52804 30.1494 8.42633 30.5674C9.00346 30.8465 9.66448 30.9114 10.2924 30.8047C9.63296 30.5207 8.96445 30.24 8.37076 29.8295C7.97371 29.5434 7.64293 29.1522 7.47193 28.6892C7.24375 28.0891 7.28276 27.4016 7.54995 26.8208C7.38536 26.675 7.22238 26.5277 7.05405 26.3867ZM12.2712 26.5673C12.6404 26.7715 13.0177 26.9595 13.396 27.1455C13.4815 27.0271 13.5783 26.9177 13.6862 26.8202C13.209 26.7709 12.7404 26.6648 12.2712 26.5673ZM14.6759 26.8626C14.3243 26.8599 13.9732 27.0271 13.7722 27.3202C14.5802 27.6926 15.4203 27.9959 16.2806 28.2231C16.3367 27.6631 16.4863 27.101 16.8 26.6279C16.1021 26.7774 15.3893 26.8572 14.6759 26.8626ZM12.5774 32.5114C12.8248 32.5398 13.0765 32.6207 13.2534 32.8045C13.637 33.1721 13.6258 33.8617 13.2277 34.2137C12.984 34.4367 12.6324 34.4897 12.3166 34.4334C12.4181 34.9157 12.7179 35.3288 13.0738 35.6578C13.5034 36.0538 14.0197 36.3566 14.5733 36.542C14.9196 36.4744 15.2391 36.2842 15.5437 36.1063C16.1502 35.7189 16.7279 35.1654 16.8775 34.4324C16.5366 34.501 16.1561 34.4141 15.9156 34.1527C15.549 33.7738 15.5768 33.0863 15.9856 32.7488C16.1796 32.5784 16.442 32.5151 16.6948 32.5146C16.5954 32.2333 16.4965 31.9509 16.4313 31.6594C15.2941 31.7746 14.142 31.7553 13.015 31.5528C12.8969 31.8839 12.7494 32.2043 12.5774 32.5114Z" fill="#002147"/>
<path d="M11.8282 3.38582C11.9719 3.3392 12.1178 3.29901 12.2642 3.25829C12.1536 3.82681 12.0264 4.39266 11.9249 4.96226C11.9981 5.29287 12.1103 5.6133 12.198 5.9407C12.0708 5.97821 11.9431 6.01626 11.817 6.05698C11.7186 5.76816 11.6486 5.47023 11.5605 5.17767C11.5375 5.07532 11.4546 5.00566 11.3873 4.93225C11.0779 4.61664 10.7787 4.29139 10.4682 3.97685C10.4238 3.92755 10.3699 3.88147 10.349 3.8161C10.4778 3.77377 10.6087 3.73947 10.738 3.69875C11.0346 3.99775 11.3211 4.30693 11.6144 4.60914C11.6839 4.20137 11.7646 3.7952 11.8282 3.38582Z" fill="#002147"/>
<path d="M17.911 3.60498C18.401 3.50317 18.9472 3.75983 19.1524 4.22334C19.4115 4.81276 19.2149 5.55651 18.7318 5.97071C18.4176 6.24452 17.9468 6.29757 17.5685 6.1336C17.1645 5.97017 16.8983 5.55168 16.8861 5.1198C16.8465 4.4725 17.235 3.73519 17.911 3.60498ZM17.9596 3.97096C17.5866 4.08884 17.3782 4.47679 17.3141 4.8417C17.2521 5.16909 17.3328 5.56186 17.6288 5.75155C17.9105 5.94767 18.3214 5.87533 18.5346 5.61062C18.8018 5.28591 18.9397 4.82026 18.8039 4.41142C18.6949 4.07169 18.3 3.86218 17.9596 3.97096Z" fill="#002147"/>
<path d="M14.4867 4.08027C14.7293 3.98006 15.0147 4.22548 14.9484 4.48161C14.9083 4.73613 14.5615 4.85509 14.3756 4.67558C14.1746 4.51537 14.2409 4.15689 14.4867 4.08027Z" fill="#002147"/>
<path d="M7.71454 5.01799C8.26602 4.73131 8.81696 4.4441 9.3679 4.15636C9.42081 4.26084 9.47371 4.36533 9.52608 4.46982C9.31126 4.57967 9.09858 4.6922 8.88536 4.80472C9.22576 5.45416 9.55761 6.10842 9.90282 6.75518C9.78365 6.82323 9.66288 6.88807 9.54158 6.9513C9.20064 6.29864 8.86131 5.64492 8.52198 4.99119C8.30716 5.10479 8.09235 5.21839 7.87592 5.32877C7.82195 5.22536 7.76798 5.1214 7.71454 5.01799Z" fill="#002147"/>
<path d="M19.6237 6.87735C20.0528 6.14003 20.4872 5.40647 20.9195 4.6713C21.3262 4.91028 21.7323 5.15141 22.139 5.39093C22.0797 5.49167 22.0198 5.59241 21.9605 5.69314C21.6714 5.51953 21.3802 5.35021 21.0895 5.17874C20.9703 5.38021 20.8543 5.58437 20.7304 5.7837C21.0013 5.95303 21.2824 6.10574 21.5522 6.27774C21.4929 6.37312 21.4357 6.46958 21.3791 6.56603C21.105 6.40635 20.8319 6.24506 20.5594 6.0827C20.3633 6.41546 20.1677 6.74875 19.9721 7.0815C19.8567 7.01184 19.7407 6.94326 19.6237 6.87735Z" fill="#002147"/>
<path d="M6.31501 6.00875C6.42562 5.92945 6.5341 5.84747 6.64418 5.76763C7.15131 6.45082 7.67446 7.12116 8.18693 7.8006C8.07899 7.88312 7.97158 7.96564 7.8647 8.04923C7.34689 7.36979 6.82373 6.69463 6.31501 6.00875Z" fill="#002147"/>
<path d="M71.9911 6.39027C72.7702 6.23006 73.638 6.41063 74.2317 6.95987C74.1189 7.11312 73.9928 7.25565 73.8769 7.40676C73.5359 7.15867 73.1368 6.97809 72.713 6.94969C72.3464 6.92182 71.9462 6.98023 71.6576 7.22511C71.3787 7.45659 71.2825 7.87026 71.4091 8.20677C71.485 8.39592 71.6394 8.54113 71.8062 8.65151C72.364 9.0116 73.0251 9.17878 73.5659 9.56834C73.9218 9.82232 74.206 10.2028 74.2712 10.6438C74.3461 11.1491 74.2183 11.6967 73.8774 12.0846C73.6305 12.3718 73.281 12.5546 72.9155 12.6371C72.0723 12.8284 71.1521 12.598 70.4857 12.0487C70.5974 11.8848 70.7101 11.7208 70.817 11.5531C71.2445 11.8178 71.7164 12.045 72.2256 12.0782C72.5612 12.09 72.9225 12.0369 73.195 11.8242C73.4996 11.5868 73.6086 11.1646 73.5472 10.7943C73.49 10.4857 73.2554 10.2478 73.0037 10.0801C72.4004 9.6814 71.6613 9.51314 71.1141 9.02607C70.5589 8.54167 70.5183 7.62913 70.9383 7.0456C71.1857 6.69838 71.5796 6.47869 71.9911 6.39027Z" fill="#002147"/>
<path d="M95.1039 6.35866C95.7463 6.27935 96.4255 6.41438 96.9572 6.79376C97.6989 7.30816 98.0991 8.20087 98.1745 9.0834C98.2653 10.0806 98.0366 11.1662 97.327 11.9057C96.5361 12.7485 95.1702 12.9361 94.1634 12.389C93.3715 11.9705 92.8735 11.1298 92.7276 10.2612C92.5651 9.28327 92.7131 8.20945 93.3106 7.39765C93.7306 6.82001 94.397 6.43903 95.1039 6.35866ZM94.9084 7.02578C94.5439 7.12116 94.2163 7.34192 93.9844 7.63824C93.6574 8.04762 93.5003 8.56792 93.4479 9.0834C93.3918 9.65568 93.4426 10.2494 93.667 10.7831C93.8262 11.1673 94.0833 11.5172 94.4285 11.7524C95.0975 12.2223 96.0952 12.1618 96.6878 11.5911C97.0704 11.2294 97.2757 10.7177 97.3686 10.2071C97.4696 9.60638 97.4621 8.9757 97.2682 8.39431C97.1255 7.96725 96.8679 7.56965 96.4992 7.30602C96.0471 6.97648 95.4443 6.88646 94.9084 7.02578Z" fill="#002147"/>
<path d="M36.9038 6.44975C37.1459 6.44921 37.3885 6.45243 37.6311 6.446C37.6456 7.84347 37.6284 9.24094 37.6397 10.6384C37.6413 10.999 37.722 11.3854 37.9854 11.649C38.3525 12.0193 38.9163 12.1163 39.4154 12.0439C39.8269 11.9866 40.2223 11.7412 40.404 11.358C40.5392 11.0676 40.5488 10.7391 40.559 10.4241C40.5697 9.09841 40.5552 7.77274 40.567 6.44707C40.8064 6.45136 41.0453 6.44975 41.2852 6.44975C41.2852 7.36443 41.2847 8.27857 41.2852 9.19325C41.2756 9.80089 41.3114 10.4123 41.2323 11.0167C41.1794 11.4341 41.0143 11.8505 40.6995 12.1388C40.248 12.5696 39.5992 12.7191 38.9911 12.696C38.3381 12.6783 37.6546 12.4201 37.2597 11.8767C36.9658 11.477 36.9119 10.9626 36.907 10.4809C36.9001 9.13698 36.9054 7.79364 36.9038 6.44975Z" fill="#002147"/>
<path d="M43.6381 6.44975C43.8881 6.44975 44.1388 6.44921 44.3894 6.45082C45.3748 8.128 46.3473 9.81375 47.3434 11.4845C47.3477 9.80625 47.3322 8.128 47.3295 6.44975C47.5545 6.45029 47.7805 6.44707 48.0066 6.45404C47.9975 8.49773 48.0103 10.542 47.9996 12.5856C47.7442 12.5803 47.4888 12.5867 47.2339 12.5798C46.2592 10.9047 45.2791 9.2329 44.2932 7.56483C44.2959 9.23826 44.3103 10.9122 44.3076 12.5856C44.0843 12.5819 43.8609 12.583 43.6381 12.5835C43.6375 10.5387 43.6375 8.49451 43.6381 6.44975Z" fill="#002147"/>
<path d="M50.5598 12.5873C50.5518 10.5409 50.5518 8.49398 50.5604 6.44761C50.8035 6.45296 51.0477 6.45029 51.2914 6.45082C51.2919 8.49505 51.2919 10.5398 51.2914 12.584C51.0477 12.584 50.8035 12.5814 50.5598 12.5873Z" fill="#002147"/>
<path d="M52.917 6.44975C53.1724 6.44975 53.4284 6.44975 53.6838 6.44975C54.2802 8.25499 54.8728 10.0613 55.4708 11.866C56.0805 10.0592 56.694 8.25339 57.3096 6.44868C57.5458 6.45029 57.783 6.44921 58.0198 6.44975C57.3037 8.49398 56.5855 10.5377 55.871 12.5824C55.5894 12.584 55.3073 12.5835 55.0256 12.583C54.324 10.5382 53.6192 8.49451 52.917 6.44975Z" fill="#002147"/>
<path d="M59.6843 6.45189C60.7921 6.44707 61.8999 6.45618 63.0082 6.44761C63.0156 6.65283 63.014 6.8586 63.0103 7.06382C62.143 7.06007 61.2752 7.06382 60.4079 7.06168C60.4063 7.73684 60.4074 8.41146 60.4074 9.08608C61.2239 9.08876 62.0404 9.08019 62.8575 9.09037C62.8516 9.28488 62.8516 9.47939 62.858 9.6739C62.0415 9.69426 61.2244 9.67765 60.4074 9.68247C60.4052 10.4385 60.4106 11.1946 60.4052 11.9501C61.2987 11.9593 62.1922 11.9507 63.0862 11.9544C63.0851 12.1645 63.0851 12.374 63.0857 12.5835C61.9517 12.583 60.8178 12.5862 59.6838 12.5819C59.687 10.5387 59.6859 8.49559 59.6843 6.45189Z" fill="#002147"/>
<path d="M65.0303 12.5792C65.0425 10.535 65.0238 8.49023 65.0399 6.44546C65.7084 6.45832 66.3774 6.43743 67.0459 6.46422C67.4654 6.48619 67.91 6.58371 68.2232 6.88539C68.7292 7.3446 68.8639 8.12103 68.6448 8.75386C68.4604 9.27416 67.9431 9.61174 67.4136 9.69051C67.7796 9.74141 68.0313 10.0468 68.1767 10.3651C68.5229 11.0982 68.8409 11.8435 69.1722 12.5835C68.9189 12.584 68.6662 12.5803 68.4134 12.5867C68.1206 11.9625 67.863 11.3216 67.5643 10.6995C67.4184 10.4064 67.2335 10.0817 66.8968 9.98575C66.5254 9.88716 66.1359 9.9236 65.7565 9.91502C65.7559 10.8045 65.7559 11.694 65.7559 12.583C65.5139 12.5824 65.2718 12.5862 65.0303 12.5792ZM65.7565 7.03917C65.7559 7.80221 65.7559 8.56578 65.7565 9.32882C66.2208 9.32185 66.6943 9.36043 67.1496 9.24415C67.4392 9.17128 67.7118 8.99499 67.8619 8.73028C68.0805 8.35573 68.0671 7.85686 67.8331 7.49249C67.6353 7.19993 67.2768 7.06704 66.9364 7.04935C66.5436 7.02738 66.1492 7.04453 65.7565 7.03917Z" fill="#002147"/>
<path d="M76.3216 6.45082C76.5669 6.45082 76.8122 6.45082 77.058 6.45082C77.0585 8.49505 77.0585 10.5393 77.058 12.584C76.8122 12.584 76.5669 12.584 76.3216 12.5835C76.3216 10.5393 76.3216 8.49505 76.3216 6.45082Z" fill="#002147"/>
<path d="M78.7039 6.45136C80.1606 6.45029 81.6168 6.45082 83.0735 6.45082C83.073 6.65444 83.073 6.8586 83.0735 7.06221C82.4691 7.06168 81.8647 7.06329 81.2609 7.06168C81.2588 8.90229 81.2604 10.7434 81.2598 12.584C81.0167 12.5846 80.7735 12.5803 80.5315 12.5889C80.5128 10.7461 80.5341 8.90229 80.5208 7.05954C79.9153 7.06597 79.3093 7.06061 78.7039 7.06221C78.7039 6.8586 78.7039 6.65498 78.7039 6.45136Z" fill="#002147"/>
<path d="M83.929 6.45029C84.2107 6.45082 84.4923 6.446 84.7744 6.45404C85.265 7.41158 85.7737 8.35948 86.268 9.31542C86.7799 8.37234 87.2475 7.40462 87.7402 6.45029C88.0058 6.44921 88.2719 6.44975 88.5386 6.45029C87.9043 7.66235 87.2694 8.87389 86.6351 10.0854C86.5913 10.1572 86.594 10.2419 86.5945 10.3228C86.5972 11.0762 86.595 11.8296 86.5961 12.583C86.3524 12.583 86.1088 12.5862 85.8662 12.5798C85.8672 11.7733 85.879 10.9653 85.8603 10.1594C85.2313 8.91622 84.566 7.69022 83.929 6.45029Z" fill="#002147"/>
<path d="M100.208 6.45082C101.291 6.45082 102.375 6.45082 103.458 6.45082C103.458 6.65444 103.458 6.8586 103.458 7.06221C102.618 7.06275 101.778 7.06221 100.938 7.06221C100.938 7.73684 100.939 8.41092 100.938 9.08555C101.728 9.08983 102.518 9.08019 103.308 9.08983C103.303 9.28595 103.303 9.48207 103.308 9.67765C102.518 9.68944 101.728 9.67925 100.938 9.68301C100.939 10.6502 100.938 11.6169 100.938 12.584C100.695 12.584 100.451 12.584 100.208 12.584C100.208 10.5393 100.208 8.49505 100.208 6.45082Z" fill="#002147"/>
<path d="M4.40461 8.01762C4.47247 7.55411 4.8941 7.19135 5.34832 7.1308C5.37504 7.24494 5.39695 7.36014 5.41779 7.47535C5.1335 7.52411 4.83906 7.71326 4.78134 8.01387C4.74233 8.20248 4.93524 8.37716 5.11907 8.3284C5.46161 8.25606 5.76353 8.02244 6.1253 8.03476C6.55868 8.03798 6.90977 8.50094 6.79701 8.92104C6.67785 9.37329 6.24607 9.6889 5.79719 9.75963C5.76994 9.6455 5.74162 9.53136 5.71223 9.41777C5.9853 9.34168 6.29898 9.21736 6.39944 8.92479C6.49028 8.71206 6.30966 8.43986 6.074 8.46558C5.71757 8.49559 5.41832 8.7485 5.05655 8.75761C4.67767 8.77369 4.34262 8.39324 4.40461 8.01762Z" fill="#002147"/>
<path d="M22.807 7.37461C23.0261 7.25458 23.3242 7.44052 23.3125 7.69183C23.3237 7.9576 22.9881 8.14032 22.7722 7.98547C22.5456 7.85311 22.567 7.48017 22.807 7.37461Z" fill="#002147"/>
<path d="M24.7462 8.90282C24.9979 8.83477 25.2742 8.83316 25.5179 8.93444C26.0448 9.14341 26.3697 9.78803 26.1773 10.3324C25.9934 10.857 25.4799 11.2219 24.945 11.3136C24.5346 11.3875 24.0932 11.208 23.8549 10.864C23.6438 10.5816 23.5684 10.1963 23.6839 9.85983C23.842 9.38347 24.2749 9.03839 24.7462 8.90282ZM24.9076 9.27952C24.5138 9.39901 24.121 9.68515 24.0253 10.1069C23.9275 10.5195 24.2888 10.9712 24.7179 10.9353C25.1363 10.9004 25.551 10.662 25.7642 10.2944C25.9491 9.97986 25.8342 9.54369 25.5317 9.34703C25.349 9.2254 25.1128 9.22218 24.9076 9.27952Z" fill="#002147"/>
<path d="M11.3889 9.05822C11.4183 9.055 11.4776 9.04857 11.5076 9.04536C11.7934 9.4333 12.0767 9.825 12.339 10.2296C12.2054 10.2617 12.0703 10.2874 11.9361 10.3174C12.0857 10.5854 12.2733 10.8297 12.4422 11.0858C12.696 10.901 12.9354 10.6952 13.1625 10.4787C13.0594 10.4246 12.9525 10.378 12.8526 10.3185C12.8638 10.2451 12.9365 10.213 12.9883 10.1717C13.2395 9.99808 13.4896 9.82232 13.738 9.64443C13.807 9.59406 13.8823 9.5469 13.9716 9.54637C13.7787 10.1947 13.5547 10.8329 13.3495 11.4775C12.7126 11.26 12.0296 11.2428 11.3633 11.2369C10.761 11.2557 10.1411 11.2723 9.5683 11.4797C9.35294 10.8393 9.14293 10.1974 8.93987 9.5528C9.10606 9.54262 9.21988 9.68354 9.35294 9.75963C9.6057 9.94878 9.90014 10.0881 10.1219 10.3164C10.0145 10.3667 9.90335 10.4112 9.80609 10.4803C10.0027 10.7043 10.2411 10.8876 10.4607 11.0885C10.6397 10.8361 10.8337 10.5896 10.9716 10.311C10.839 10.2864 10.7065 10.2644 10.5761 10.2301C10.8284 9.82715 11.1212 9.45099 11.3889 9.05822Z" fill="#002147"/>
<path d="M17.1468 9.85019C17.3365 9.58066 17.5284 9.31274 17.7165 9.04214C17.8955 9.03785 17.9489 9.23772 18.0483 9.35078C18.2407 9.65193 18.4892 9.91878 18.6447 10.2419C18.5148 10.2649 18.3855 10.2864 18.2567 10.3126C18.3946 10.587 18.5923 10.8243 18.7553 11.0837C19.015 10.9069 19.248 10.692 19.4794 10.4803C19.3736 10.4225 19.2646 10.3705 19.1556 10.3196C19.2635 10.1712 19.4345 10.0919 19.5772 9.98308C19.7829 9.84483 19.9753 9.68622 20.189 9.5603C20.2152 9.55976 20.2665 9.55762 20.2922 9.55655C20.087 10.1979 19.8732 10.8367 19.6664 11.477C19.0423 11.2637 18.3732 11.245 17.7202 11.2364C17.1025 11.2509 16.4703 11.2728 15.8809 11.4775C15.6725 10.8367 15.4603 10.1974 15.2551 9.55601C15.4432 9.54529 15.5731 9.71408 15.7265 9.79875C15.9589 9.97611 16.2411 10.0961 16.4329 10.3207C16.3234 10.3678 16.2149 10.4182 16.1096 10.475C16.3223 10.6748 16.5307 10.8817 16.7567 11.066L16.7963 11.0628C16.9764 10.8324 17.1249 10.58 17.2943 10.3421C17.1768 10.2714 17.0368 10.2676 16.9053 10.244C16.9545 10.0951 17.0592 9.97664 17.1468 9.85019Z" fill="#002147"/>
<path d="M2.91744 9.9954C3.03553 9.80946 3.21989 9.64389 3.44967 9.63478C3.87023 9.58602 4.33033 9.97611 4.2133 10.4209C4.41262 10.3217 4.6376 10.3673 4.84974 10.3817C5.09342 10.4042 5.33763 10.4214 5.58131 10.4466C5.50382 10.5677 5.43382 10.6931 5.36809 10.8211C5.03143 10.804 4.69584 10.7397 4.35812 10.7531C4.1433 10.7665 4.06154 10.9937 3.97016 11.1534C4.2833 11.32 4.59271 11.4931 4.90425 11.6635C4.84012 11.7819 4.77493 11.8998 4.70707 12.0161C3.96161 11.6051 3.21348 11.1984 2.46268 10.7965C2.6107 10.5275 2.75231 10.2542 2.91744 9.9954ZM3.2915 10.0967C3.13813 10.2338 3.05905 10.431 2.9511 10.602C3.1905 10.7338 3.43097 10.8635 3.67198 10.9926C3.76603 10.8126 3.8884 10.6336 3.89695 10.4235C3.90283 10.1379 3.52449 9.91556 3.2915 10.0967Z" fill="#002147"/>
<path d="M27.105 11.4609C27.1584 11.6045 27.2065 11.7497 27.2557 11.8944C27.0387 12.1698 26.7817 12.4126 26.5791 12.6992C26.9195 12.771 27.2594 12.8466 27.5977 12.9313C27.6372 13.0684 27.6821 13.2045 27.7264 13.3406C27.2589 13.2244 26.7902 13.1118 26.3216 13.0009C25.9918 13.4001 25.6541 13.7929 25.3303 14.1975C25.2715 14.0538 25.2229 13.9065 25.1828 13.7575C25.4382 13.4719 25.6846 13.1788 25.9304 12.8852C25.5633 12.7914 25.1887 12.726 24.8237 12.6253C24.7419 12.5042 24.7238 12.3451 24.6703 12.209C25.1796 12.3231 25.6835 12.4635 26.1949 12.5674C26.4877 12.1902 26.8089 11.8355 27.105 11.4609Z" fill="#002147"/>
<path d="M10.3923 11.7283C11.0218 11.6426 11.6609 11.6404 12.2926 11.6999C12.5715 11.7347 12.859 11.7642 13.1166 11.8842C13.1967 11.9083 13.2689 12.0225 13.1705 12.0755C13.0017 12.1881 12.7933 12.2165 12.5977 12.2545C11.958 12.351 11.3056 12.3558 10.6616 12.2984C10.3795 12.2679 10.0915 12.2357 9.828 12.1254C9.7564 12.1012 9.71525 12.0353 9.66822 11.9818C9.86381 11.8001 10.1417 11.7733 10.3923 11.7283Z" fill="#002147"/>
<path d="M16.0936 11.8955C16.3677 11.7583 16.6809 11.7321 16.9806 11.6951C17.6721 11.6377 18.3754 11.6394 19.0599 11.7669C19.2389 11.8135 19.4655 11.836 19.5606 12.0203C19.3447 12.1977 19.0583 12.2304 18.7927 12.2727C18.082 12.3601 17.3585 12.3595 16.6493 12.2572C16.4425 12.2148 16.2133 12.1929 16.0412 12.0584C15.9691 12.0085 16.0359 11.9201 16.0936 11.8955Z" fill="#002147"/>
<path d="M1.47782 13.6836C1.61783 13.211 1.76051 12.7389 1.89677 12.2658C2.01006 12.2942 2.12335 12.3242 2.2361 12.3552C2.13297 12.6982 2.02877 13.0406 1.9251 13.383C2.15381 13.4414 2.38039 13.5062 2.60803 13.5695C2.69994 13.2581 2.77048 12.9404 2.88163 12.636C2.9869 12.6692 3.09218 12.7014 3.19798 12.7335C3.11088 13.0427 3.02324 13.3514 2.93667 13.6605C3.19424 13.7275 3.45074 13.8015 3.70778 13.8717C3.80023 13.5352 3.89909 13.2008 3.98993 12.8637C4.10482 12.8927 4.21918 12.9238 4.33407 12.9543C4.20902 13.4253 4.0765 13.8936 3.94825 14.3636C3.12584 14.1326 2.30076 13.9124 1.47782 13.6836Z" fill="#002147"/>
<path d="M9.81518 13.3583C10.7776 13.3583 11.74 13.3589 12.7024 13.3583C13.0888 13.3653 13.504 13.3578 13.8465 13.5641C14.2393 13.7972 14.4065 14.273 14.4087 14.7108C14.4146 16.4801 14.4082 18.2495 14.4119 20.0183C14.413 20.1297 14.4076 20.2412 14.3921 20.3516C14.2831 20.1887 14.3189 19.9663 14.1848 19.8136C13.9555 19.5044 13.5339 19.476 13.1818 19.4653C12.0601 19.4621 10.9384 19.4626 9.81732 19.4648C9.81304 17.4296 9.81678 15.394 9.81518 13.3583ZM10.186 14.3277C10.2128 14.3571 10.2657 14.4166 10.2918 14.4461C10.3089 14.6427 10.3041 14.8415 10.2967 15.0393C10.3084 15.1218 10.2128 15.1491 10.17 15.2005C10.4153 15.1925 10.6878 15.2445 10.9074 15.1062C11.1618 14.9551 11.1736 14.5093 10.8898 14.3829C10.6675 14.2923 10.4196 14.3362 10.186 14.3277ZM11.483 14.3486C11.1575 14.4825 11.1255 15.0114 11.4461 15.17C11.7347 15.3356 12.1413 15.1073 12.1194 14.766C12.152 14.4354 11.7699 14.2023 11.483 14.3486ZM12.2001 14.3287C12.2434 14.3802 12.3455 14.4064 12.33 14.4916C12.331 14.6711 12.3193 14.8506 12.299 15.0291C12.3022 15.1105 12.2236 15.1496 12.1766 15.2027C12.3006 15.2038 12.4261 15.2075 12.5485 15.1813C12.5149 15.162 12.447 15.1234 12.4128 15.1041C12.393 14.9342 12.4064 14.7628 12.4123 14.5924C12.5191 14.7815 12.5726 14.9948 12.6671 15.1898C12.6832 15.1877 12.7152 15.1839 12.7313 15.1823C12.8307 14.9701 12.8884 14.7408 12.9979 14.5334C13.0027 14.7242 13.0017 14.9155 12.999 15.1068C12.9669 15.1298 12.9033 15.1748 12.8713 15.1973C13.0268 15.2027 13.1818 15.2022 13.3373 15.2016C13.3095 15.1716 13.2534 15.1116 13.225 15.0816C13.2058 14.8699 13.1999 14.6561 13.2063 14.4434C13.2357 14.4139 13.2945 14.3555 13.3244 14.3261C13.209 14.3266 13.0941 14.3271 12.9792 14.3266C12.9114 14.5034 12.843 14.6802 12.7767 14.8576C12.6939 14.6819 12.6158 14.504 12.5389 14.3261C12.4256 14.3266 12.3129 14.3271 12.2001 14.3287ZM13.3912 14.3287C13.5606 14.4134 13.5061 14.6095 13.5157 14.7622C13.5061 14.9166 13.5606 15.1105 13.3939 15.2011C13.5499 15.2016 13.706 15.2016 13.862 15.2027C13.8342 15.1727 13.7787 15.1132 13.7503 15.0837C13.7343 14.871 13.7364 14.6561 13.7493 14.4434C13.7776 14.4177 13.8348 14.3657 13.8636 14.3395C13.7065 14.3223 13.5483 14.3234 13.3912 14.3287ZM10.7274 15.9416C10.7749 15.9952 10.8722 16.022 10.8765 16.104C10.8952 16.3076 10.8823 16.5123 10.8716 16.7159C10.8417 16.74 10.7808 16.7877 10.7509 16.8118C10.877 16.8199 11.0036 16.8193 11.1292 16.8016C10.8599 16.7288 10.9978 16.4008 10.9646 16.201C11.1415 16.3965 11.2933 16.6136 11.4584 16.8193C11.4862 16.8247 11.5412 16.8354 11.5685 16.8402C11.6011 16.568 11.5476 16.2888 11.6075 16.0209L11.7266 15.9839C11.6075 15.9148 11.4669 15.9448 11.3365 15.9438C11.576 16.0273 11.4803 16.3017 11.5001 16.4941C11.3414 16.3162 11.1981 16.1254 11.048 15.9411C10.9411 15.9416 10.8342 15.9411 10.7274 15.9416ZM11.7544 16.0016C11.9799 16.2208 11.9612 16.6077 12.1632 16.8343L12.2225 16.8204C12.3813 16.5343 12.3989 16.1554 12.6666 15.9416C12.5453 15.9416 12.4235 15.9416 12.3022 15.9411C12.331 15.9668 12.3882 16.0182 12.4171 16.044C12.3743 16.2031 12.3161 16.3574 12.2594 16.5123C12.1761 16.3574 12.1205 16.1897 12.0612 16.0252C12.0927 16.0054 12.1568 15.9657 12.1883 15.9454C12.0323 15.9416 11.8763 15.9416 11.7208 15.9357C11.7288 15.9518 11.7459 15.985 11.7544 16.0016ZM12.8237 15.9722C12.6949 16.0461 12.6565 16.2497 12.7692 16.3542C12.8595 16.4308 12.9739 16.4716 13.0642 16.5482C13.1262 16.6302 13.0786 16.7679 12.9685 16.7695C12.8264 16.7572 12.7794 16.5986 12.673 16.5262C12.6826 16.6152 12.6987 16.703 12.7152 16.7909C12.8472 16.8274 12.9947 16.8638 13.1246 16.7984C13.2683 16.7389 13.3298 16.546 13.2491 16.4142C13.1636 16.2888 12.9899 16.2706 12.8975 16.1549C12.8435 16.0557 12.9733 15.9486 13.0642 16.0048C13.1321 16.0606 13.1823 16.1345 13.2411 16.1994C13.2341 16.1163 13.2266 16.0332 13.2186 15.9502C13.0882 15.9293 12.9429 15.895 12.8237 15.9722ZM10.6183 17.5657C10.6509 17.5866 10.7161 17.6284 10.7487 17.6493C10.7573 17.8771 10.7562 18.1053 10.7503 18.3331C10.706 18.362 10.6622 18.3909 10.6183 18.4199C10.7792 18.4338 10.94 18.4322 11.1014 18.4317C11.0646 18.3883 11.0138 18.355 10.9892 18.3031C10.9726 18.0871 10.9844 17.8706 10.9865 17.6547C11.0287 17.622 11.071 17.5893 11.1132 17.5556C10.9481 17.554 10.7829 17.5534 10.6183 17.5657ZM11.1517 17.5615C11.1933 17.5888 11.2345 17.6161 11.2767 17.6434C11.2858 17.8717 11.2991 18.1021 11.2746 18.3293C11.243 18.3518 11.18 18.3963 11.1484 18.4183C11.3766 18.4424 11.6059 18.4258 11.8346 18.4349C11.8554 18.3465 11.8731 18.258 11.888 18.1686C11.795 18.2918 11.6892 18.4017 11.5198 18.355C11.515 18.1396 11.5049 17.9231 11.5193 17.7077C11.5172 17.6306 11.6016 17.6 11.6449 17.5513C11.4803 17.5561 11.3157 17.5545 11.1517 17.5615ZM11.9035 17.5598C11.9457 17.5909 11.988 17.6225 12.0302 17.6542C12.0328 17.8717 12.0441 18.0898 12.0286 18.3073C11.9976 18.3373 11.9351 18.3984 11.9041 18.429C12.1328 18.4317 12.3615 18.4317 12.5907 18.4306C12.6068 18.3438 12.6217 18.2564 12.6346 18.1696C12.5426 18.2913 12.4384 18.399 12.2712 18.3604C12.2642 18.1439 12.2546 17.9269 12.2685 17.711C12.2648 17.6327 12.3492 17.6006 12.393 17.5513C12.2295 17.5561 12.0665 17.5556 11.9035 17.5598ZM12.4769 17.5529C12.5309 17.6054 12.6009 17.6488 12.6287 17.7238C12.727 17.9569 12.8098 18.197 12.9007 18.4338C12.9258 18.4376 12.9771 18.4461 13.0022 18.4499C13.1037 18.2071 13.186 17.9558 13.2972 17.7174C13.3287 17.6456 13.3992 17.6043 13.4543 17.5529C13.3276 17.5561 13.201 17.5556 13.0743 17.555C13.1075 17.5791 13.1727 17.6263 13.2058 17.6504C13.1497 17.8149 13.0947 17.9799 13.0391 18.1444C12.9685 17.9816 12.9071 17.8149 12.843 17.6493C12.8729 17.6258 12.9327 17.5781 12.9627 17.5545C12.8002 17.5556 12.6383 17.5572 12.4769 17.5529Z" fill="#002147"/>
<path d="M15.2754 13.6514C15.5827 13.3916 16.0054 13.3685 16.3891 13.3599C17.4092 13.3567 18.4293 13.3594 19.4495 13.3589C19.4516 15.3924 19.4457 17.4259 19.4521 19.4589C18.4662 19.4696 17.4803 19.4605 16.4938 19.4637C16.115 19.469 15.7179 19.4358 15.3583 19.581C15.1322 19.6705 14.965 19.8854 14.9329 20.1271C14.9046 20.1924 14.9324 20.3007 14.8506 20.3312C14.8373 20.2626 14.8308 20.194 14.8314 20.1244C14.8346 18.3384 14.8308 16.5525 14.833 14.7665C14.8308 14.3593 14.9473 13.9167 15.2754 13.6514ZM15.4069 14.3277C15.4523 14.363 15.4945 14.4016 15.5335 14.4439C15.541 14.6385 15.525 14.833 15.5047 15.0264C15.5084 15.1073 15.4315 15.148 15.385 15.2022C15.4993 15.2016 15.6132 15.2016 15.7275 15.2027L15.7302 15.1641C15.7019 15.1486 15.6452 15.1164 15.6169 15.1009C15.5993 14.931 15.6116 14.7601 15.6196 14.5908C15.7233 14.7804 15.7778 14.991 15.8707 15.1855C15.8868 15.1855 15.9194 15.1845 15.9354 15.1839C16.0343 14.9712 16.0946 14.7419 16.2031 14.5334C16.2074 14.7247 16.2074 14.916 16.2037 15.1073C16.1721 15.1298 16.1096 15.1754 16.0781 15.1979C16.2336 15.2022 16.3891 15.2022 16.5446 15.2016C16.5163 15.1716 16.4591 15.1116 16.4308 15.0816C16.411 14.8683 16.4067 14.6535 16.4105 14.4397C16.442 14.4118 16.505 14.3555 16.5366 14.3277C16.419 14.3271 16.302 14.3271 16.1844 14.3266C16.1182 14.4986 16.053 14.6711 15.9878 14.8437C15.8905 14.6808 15.821 14.504 15.7489 14.3293C15.6345 14.3266 15.5207 14.3271 15.4069 14.3277ZM16.6044 14.3271C16.6312 14.3582 16.6851 14.4204 16.7119 14.452C16.7252 14.661 16.7257 14.8726 16.7113 15.0821C16.6825 15.1116 16.6242 15.1711 16.5954 15.2011C16.7546 15.2016 16.9138 15.2011 17.0736 15.2022C17.0442 15.1727 16.9855 15.1143 16.9561 15.0848C16.94 14.8731 16.9411 14.6593 16.955 14.4477C16.9844 14.4171 17.0426 14.3571 17.0715 14.3266C16.916 14.3266 16.7599 14.3266 16.6044 14.3271ZM17.0945 14.3303C17.1463 14.3662 17.1944 14.407 17.2382 14.4525C17.2617 14.6272 17.2526 14.8046 17.2473 14.9803C17.2612 15.0789 17.2045 15.1486 17.1174 15.1877C17.2478 15.2102 17.3814 15.2091 17.5102 15.178C17.4701 15.1636 17.39 15.1346 17.3494 15.1196C17.3296 14.9444 17.3275 14.7676 17.3355 14.5913C17.4589 14.7263 17.5679 14.8742 17.6796 15.02C17.7512 15.1084 17.8137 15.2289 17.9452 15.2257C17.9511 14.9803 17.9361 14.7344 17.9553 14.4895C17.9484 14.4059 18.0414 14.3786 18.0873 14.3271C17.958 14.3266 17.8292 14.3271 17.701 14.3298C17.7507 14.3641 17.7993 14.4 17.8474 14.4375C17.872 14.5843 17.8629 14.7349 17.8672 14.8833C17.7101 14.7006 17.5647 14.5077 17.4092 14.3234C17.3039 14.3261 17.1992 14.3277 17.0945 14.3303ZM18.0237 15.2016C18.1451 15.2022 18.2664 15.2005 18.3877 15.1968C18.3556 15.1764 18.2915 15.1346 18.2589 15.1137C18.2776 15.0553 18.2963 14.9969 18.3144 14.9385C18.3871 14.9369 18.4598 14.9358 18.5325 14.9342C18.5533 14.9959 18.5731 15.0575 18.5939 15.1196C18.5661 15.1389 18.51 15.1775 18.4817 15.1968C18.6383 15.2032 18.7954 15.2022 18.9525 15.2005C18.8991 15.147 18.828 15.1057 18.8029 15.0307C18.7035 14.7944 18.6372 14.5457 18.5341 14.3111L18.4705 14.3164C18.2824 14.5892 18.2899 14.9814 18.0237 15.2016ZM16.0075 15.9121C16.0049 16.0118 16.0027 16.1115 16.0022 16.2111C16.062 16.1034 16.1337 16.0022 16.2683 15.9973C16.2747 16.2379 16.2747 16.4791 16.2667 16.7197C16.2314 16.7416 16.1609 16.7861 16.1256 16.8086C16.3025 16.8204 16.4799 16.8204 16.6568 16.8075C16.6194 16.7856 16.5441 16.7427 16.5061 16.7213C16.4981 16.4796 16.4976 16.2379 16.5056 15.9968C16.6376 15.9995 16.707 16.1072 16.7738 16.2052C16.7744 16.1109 16.7706 16.0166 16.7632 15.9223C16.5125 15.9432 16.256 15.9647 16.0075 15.9121ZM16.8449 15.9448C16.8877 15.9786 16.9309 16.0123 16.9748 16.0456C16.9705 16.2642 16.9881 16.4833 16.9662 16.7014C16.9384 16.7298 16.8829 16.7861 16.8551 16.8145C17.0138 16.8172 17.1725 16.8182 17.3317 16.8102C17.3007 16.7872 17.2387 16.74 17.2078 16.7164C17.2045 16.5107 17.196 16.3044 17.2078 16.0991C17.1987 16.0198 17.2874 15.9914 17.3285 15.9405C17.1671 15.9411 17.0058 15.94 16.8449 15.9448ZM17.6417 15.9834C17.4065 16.1179 17.3467 16.4721 17.5188 16.68C17.6748 16.8734 17.9938 16.8868 18.1755 16.7223C18.3657 16.546 18.3706 16.2015 18.1744 16.0279C18.0312 15.8998 17.8057 15.8929 17.6417 15.9834ZM15.7895 17.554C15.8584 17.6097 15.9509 17.6627 15.9215 17.7683C15.8969 17.9912 15.9541 18.2538 15.7917 18.4343C15.9076 18.4317 16.0268 18.4424 16.1395 18.4075C15.8884 18.3513 16.0252 18.033 16.0102 17.854C16.131 18.0389 16.1711 18.2623 16.2801 18.4536C16.426 18.2382 16.4783 17.9773 16.5863 17.7431C16.5563 17.9692 16.691 18.2682 16.4799 18.4317C16.6322 18.4317 16.784 18.4306 16.9358 18.4284C16.908 18.4043 16.8519 18.3572 16.8241 18.3336C16.7867 18.1096 16.8022 17.8797 16.7931 17.6531C16.839 17.6204 16.885 17.5877 16.9315 17.5556C16.8096 17.5556 16.6883 17.5561 16.567 17.5588C16.5024 17.7345 16.4345 17.9092 16.3699 18.0844C16.2811 17.9108 16.209 17.7297 16.1262 17.5534C16.014 17.5556 15.9017 17.5556 15.7895 17.554ZM16.978 17.555C17.0084 17.5807 17.0693 17.6311 17.1003 17.6568C17.103 17.8739 17.1148 18.0914 17.0977 18.3084C17.0635 18.3379 16.9956 18.3968 16.9614 18.4263C17.2008 18.4333 17.4407 18.4327 17.6807 18.429C17.6951 18.34 17.7085 18.2511 17.7197 18.1627C17.663 18.2216 17.6139 18.287 17.5572 18.3454C17.4851 18.355 17.4124 18.3599 17.3403 18.3593C17.3344 18.2398 17.3323 18.1198 17.3323 17.9998C17.4488 17.9971 17.5284 18.07 17.5882 18.1605C17.5914 18.0426 17.593 17.9248 17.5909 17.8074C17.5246 17.8878 17.4429 17.9446 17.3349 17.9483C17.3323 17.8412 17.3317 17.7345 17.3307 17.6284C17.4792 17.5936 17.5754 17.6879 17.6497 17.8031C17.6486 17.7217 17.6475 17.6408 17.647 17.5604C17.4236 17.5534 17.2008 17.5561 16.978 17.555ZM17.7149 18.4301C17.8287 18.4311 17.9425 18.4311 18.0563 18.4295C18.02 18.3968 17.9837 18.3652 17.9468 18.3341C17.965 18.2773 17.9826 18.2216 18.0013 18.1653C18.075 18.1659 18.1499 18.1664 18.2241 18.167C18.268 18.2602 18.2738 18.355 18.2017 18.4359C18.3476 18.4317 18.494 18.4301 18.6404 18.4242C18.579 18.3716 18.5036 18.3261 18.4806 18.243C18.3834 18.0014 18.3091 17.7506 18.2065 17.5111C17.9468 17.7554 17.996 18.1959 17.7149 18.4301Z" fill="#002147"/>
<path d="M7.68355 13.7607C7.82249 13.5587 8.16395 13.5523 8.29274 13.7677C8.37877 13.9478 8.5984 13.9435 8.76139 14.0051C8.76085 13.9569 8.76032 13.8609 8.75978 13.8127C8.89979 13.8122 9.04033 13.8122 9.18087 13.8122C9.18248 15.9625 9.18034 18.1134 9.18194 20.2642C10.7327 20.2626 12.2835 20.2642 13.8342 20.2637C13.9053 20.4453 13.9972 20.6463 14.1971 20.7138C14.4691 20.8065 14.7769 20.8065 15.0494 20.7159C15.2525 20.6511 15.3487 20.448 15.4197 20.2637C16.9753 20.261 18.5314 20.2685 20.087 20.2599C20.0816 18.1107 20.0859 15.9614 20.0848 13.8122C20.2248 13.8122 20.3649 13.8122 20.5049 13.8116C20.5065 16.1029 20.5054 18.3941 20.5054 20.6854C18.8964 20.6865 17.2874 20.6833 15.6784 20.6865C15.4181 21.1478 14.8351 21.2625 14.3504 21.1832C14.0314 21.1473 13.7402 20.9614 13.574 20.6859C11.9703 20.6854 10.3672 20.6827 8.76352 20.6875C8.75978 20.5343 8.76032 20.3816 8.76032 20.2283C8.63153 20.2808 8.50328 20.3355 8.37824 20.396C8.31839 20.5836 8.14471 20.7476 7.93577 20.7084C7.67126 20.6806 7.51415 20.3446 7.66645 20.1244C7.7776 19.9347 8.02875 19.9068 8.21205 20.0017C8.39587 19.925 8.5797 19.8468 8.76139 19.7648C8.76032 19.5971 8.76032 19.4299 8.76032 19.2633C8.63581 19.3008 8.51183 19.3388 8.38892 19.3801C8.31251 19.5505 8.13991 19.6952 7.94272 19.6496C7.66698 19.6126 7.52804 19.2429 7.71187 19.0329C7.84065 18.8582 8.09395 18.8555 8.26335 18.9718C8.42954 18.9241 8.59413 18.8732 8.75978 18.8234C8.76085 18.6503 8.76032 18.4772 8.76085 18.3041C8.6342 18.325 8.50756 18.3459 8.38144 18.3684C8.28739 18.512 8.12761 18.6374 7.94539 18.5924C7.66912 18.5522 7.53606 18.1803 7.72202 17.9724C7.86524 17.7849 8.14418 17.8031 8.3093 17.9499C8.46 17.9264 8.61016 17.9001 8.76032 17.8738C8.76032 17.6976 8.76032 17.5207 8.76085 17.3444C8.62833 17.3487 8.49634 17.3535 8.36434 17.36C8.2238 17.5545 7.9176 17.615 7.74821 17.4243C7.53927 17.2244 7.66217 16.83 7.947 16.7845C8.10677 16.7389 8.23877 16.8504 8.36274 16.9318C8.49527 16.9377 8.62779 16.9259 8.76032 16.9217C8.76032 16.7304 8.76032 16.5396 8.76139 16.3488C8.62031 16.3408 8.47924 16.3344 8.33816 16.3306C8.23235 16.4308 8.09341 16.5198 7.94058 16.4791C7.69263 16.4373 7.55102 16.1227 7.68782 15.91C7.7979 15.7032 8.10784 15.6533 8.27136 15.8253C8.39534 15.9636 8.5968 15.9014 8.76032 15.9245C8.76032 15.7482 8.76032 15.5724 8.76085 15.3972C8.60588 15.3683 8.45198 15.3388 8.29648 15.3152C8.18105 15.3983 8.0357 15.4669 7.89302 15.4117C7.66057 15.3452 7.55049 15.0377 7.68943 14.8394C7.81126 14.6336 8.1383 14.5983 8.28793 14.7912C8.38999 14.9541 8.59733 14.9267 8.76085 14.9658C8.76032 14.7928 8.76032 14.6197 8.75978 14.4461C8.59306 14.3995 8.43061 14.3378 8.26174 14.3003C8.13189 14.3287 8.00097 14.4139 7.86523 14.3534C7.6269 14.28 7.52644 13.9558 7.68355 13.7607Z" fill="#002147"/>
<path d="M10.5318 14.392C10.8829 14.3587 10.9395 14.8555 10.7578 15.0661C10.7097 15.1282 10.5569 15.1759 10.5393 15.0666C10.5157 14.8426 10.5323 14.6165 10.5318 14.392Z" fill="#002147"/>
<path d="M11.5898 14.3968C11.725 14.3196 11.833 14.4884 11.8496 14.6047C11.8741 14.7746 11.9025 14.9921 11.7737 15.1271C11.6331 15.2177 11.5092 15.0473 11.4899 14.9219C11.4595 14.7494 11.4381 14.5195 11.5898 14.3968Z" fill="#002147"/>
<path d="M18.3321 14.8522C18.3631 14.7692 18.3951 14.6872 18.4283 14.6052C18.455 14.6904 18.4822 14.7762 18.5095 14.8619C18.4502 14.8587 18.3909 14.8555 18.3321 14.8522Z" fill="#002147"/>
<path d="M25.4521 15.0896C26.3018 15.0232 27.1504 14.9444 28.0011 14.8839C28.0289 15.3543 28.0759 15.8237 28.1112 16.2937C27.9947 16.3033 27.8787 16.3124 27.7628 16.3221C27.7355 15.9861 27.7072 15.6501 27.6821 15.3136C27.4491 15.3302 27.2166 15.3543 26.9831 15.3634C26.9949 15.6833 27.0317 16.0016 27.0542 16.3205C26.9398 16.329 26.826 16.3387 26.7127 16.3467C26.6892 16.03 26.662 15.7139 26.6363 15.3977C26.2521 15.4326 25.8679 15.462 25.4831 15.4904C25.473 15.3565 25.4628 15.2231 25.4521 15.0896Z" fill="#002147"/>
<path d="M1.22453 14.9299C2.06564 15.267 2.90354 15.6126 3.74358 15.9529C3.73877 16.0938 3.73289 16.2347 3.72648 16.3762C2.86507 16.6366 2.00258 16.8938 1.13956 17.1494C1.1401 17.009 1.14063 16.8686 1.13903 16.7288C1.83051 16.5289 2.5252 16.3408 3.21669 16.1415C2.56207 15.8494 1.88021 15.6201 1.21491 15.3517C1.21812 15.2113 1.22132 15.0703 1.22453 14.9299Z" fill="#002147"/>
<path d="M17.7924 16.0081C17.8731 15.962 17.966 16.0188 18.0034 16.0938C18.0809 16.2444 18.0793 16.4239 18.0531 16.5878C18.0425 16.6779 17.9815 16.7732 17.88 16.77C17.7304 16.7347 17.686 16.5637 17.6727 16.4308C17.6636 16.2856 17.6636 16.1034 17.7924 16.0081Z" fill="#002147"/>
<path d="M26.188 17.42C26.8105 17.2576 27.588 17.4886 27.8819 18.0973C28.1042 18.572 27.9589 19.2006 27.5244 19.5033C26.9484 19.8902 26.0998 19.7675 25.6226 19.2745C25.3244 18.9557 25.2672 18.4579 25.4324 18.0619C25.5643 17.7436 25.8567 17.5036 26.188 17.42ZM26.3558 17.8037C26.0068 17.8492 25.6974 18.1482 25.7028 18.512C25.6755 18.8528 25.9646 19.1181 26.2628 19.2204C26.5962 19.3431 26.9975 19.3694 27.3091 19.1749C27.6425 18.9723 27.7382 18.4638 27.4844 18.1616C27.2161 17.8396 26.7539 17.7463 26.3558 17.8037Z" fill="#002147"/>
<path d="M18.0189 18.0903C18.0483 18.0019 18.0793 17.9146 18.1103 17.8267C18.1381 17.9124 18.1664 17.9982 18.1958 18.0839C18.1515 18.0855 18.0633 18.0887 18.0189 18.0903Z" fill="#002147"/>
<path d="M41.748 18.0201C43.6252 17.824 45.5955 18.3711 47.0287 19.6223C47.8511 20.3301 48.4886 21.2523 48.8621 22.2731C49.5654 24.2027 49.3554 26.4537 48.2802 28.2064C47.5262 29.4474 46.3399 30.4087 44.9826 30.9135C42.8349 31.7151 40.288 31.4311 38.4156 30.0862C37.1374 29.1806 36.214 27.7901 35.8746 26.2581C35.4284 24.2696 35.8725 22.07 37.1593 20.4753C38.2697 19.072 39.9754 18.1895 41.748 18.0201ZM41.9056 18.6658C41.196 18.7516 40.5087 19.027 39.9455 19.4696C39.2385 20.0193 38.7335 20.7942 38.406 21.621C37.9571 22.7591 37.8096 24.0001 37.8732 25.2175C37.9266 26.241 38.1313 27.2698 38.5818 28.1957C38.9612 28.9797 39.5389 29.6827 40.2918 30.1301C41.1137 30.6279 42.1092 30.7897 43.0556 30.6767C43.793 30.5904 44.5091 30.3005 45.0857 29.829C45.7825 29.2669 46.2763 28.4862 46.5948 27.6556C47.0463 26.4735 47.1783 25.1865 47.0896 23.9299C47.0153 22.9 46.7823 21.8669 46.2945 20.9517C45.8857 20.1849 45.2743 19.5103 44.4995 19.1063C43.7102 18.6856 42.7873 18.5597 41.9056 18.6658Z" fill="#002147"/>
<path d="M83.112 18.0255C85.0293 17.8117 87.0498 18.377 88.499 19.6737C89.276 20.3591 89.8815 21.2362 90.2491 22.2061C91.0149 24.2343 90.7594 26.6321 89.5469 28.4336C88.6732 29.7432 87.3074 30.7018 85.7924 31.1075C83.6961 31.6787 81.3234 31.2731 79.6033 29.919C78.2604 28.8805 77.369 27.2869 77.1718 25.599C76.9276 23.6609 77.5069 21.6054 78.8396 20.1619C79.9335 18.9487 81.4939 18.1927 83.112 18.0255ZM83.3215 18.6653C82.724 18.7382 82.141 18.9407 81.6366 19.2713C80.9002 19.7455 80.3482 20.4657 79.9784 21.2534C79.5012 22.2715 79.2938 23.401 79.2741 24.5209C79.2591 25.6842 79.4178 26.8668 79.8785 27.9417C80.2317 28.768 80.7869 29.5257 81.5398 30.0262C82.2559 30.5095 83.128 30.7292 83.9868 30.7099C84.8124 30.7002 85.6428 30.4554 86.3156 29.9677C87.0765 29.4239 87.62 28.6201 87.9673 27.759C88.4461 26.5662 88.5904 25.2577 88.5065 23.9803C88.4365 22.9322 88.203 21.8793 87.705 20.9485C87.3015 20.1924 86.7019 19.5275 85.942 19.1218C85.1469 18.6905 84.2128 18.5581 83.3215 18.6653Z" fill="#002147"/>
<path d="M1.29026 18.4038C2.13297 18.2843 2.97408 18.153 3.81626 18.0325C3.83549 18.1664 3.85473 18.3004 3.87397 18.4343C3.03286 18.5613 2.19175 18.6883 1.34957 18.8089C1.3298 18.6739 1.31003 18.5383 1.29026 18.4038Z" fill="#002147"/>
<path d="M49.8807 18.1954C51.7707 18.1959 53.6608 18.1948 55.5515 18.1959C55.5504 18.3529 55.5504 18.5099 55.5499 18.6669C55.1432 18.751 54.7365 18.8362 54.3293 18.9166C54.2267 18.9428 54.1049 18.9589 54.0408 19.0532C54.0157 19.1754 54.1033 19.2777 54.1637 19.3737C55.1427 20.7738 56.1158 22.1777 57.0958 23.5773C57.1327 23.6759 57.2219 23.6223 57.2551 23.5537C58.2602 22.145 59.2681 20.7384 60.2711 19.3287C60.3561 19.2338 60.4015 19.0597 60.2422 19.0141C59.8137 18.8652 59.3637 18.7821 58.925 18.6664C58.9239 18.5094 58.9239 18.3524 58.9239 18.1954C60.4432 18.1948 61.9624 18.1954 63.4822 18.1954C63.4816 18.3529 63.4816 18.5104 63.4806 18.6685C62.9708 18.81 62.4439 18.8941 61.9469 19.0784C61.513 19.2397 61.2415 19.6298 60.9701 19.9808C59.8452 21.4013 58.7198 22.8213 57.5965 24.2428C58.9357 26.009 60.2716 27.7772 61.6097 29.5444C61.8256 29.859 62.089 30.1617 62.4572 30.2957C62.896 30.4564 63.3571 30.5438 63.8049 30.6751C63.8049 30.8305 63.8049 30.9864 63.8076 31.1423C61.917 31.1487 60.0258 31.1428 58.1357 31.145C58.1352 30.9891 58.1352 30.8331 58.1341 30.6777C58.6102 30.5657 59.0992 30.5036 59.5684 30.3648C59.7356 30.3102 59.648 30.1205 59.5721 30.024C58.6434 28.7075 57.7104 27.3941 56.7795 26.0792C56.6213 25.8627 56.4781 25.6349 56.3049 25.4303C55.304 26.7725 54.3416 28.1454 53.3557 29.4994C53.2093 29.7175 53.0297 29.9147 52.91 30.1489C52.8593 30.2882 53.0372 30.3402 53.135 30.3739C53.5321 30.4822 53.9344 30.5684 54.332 30.6756C54.3326 30.8326 54.3326 30.9901 54.3261 31.1471C52.809 31.1428 51.2925 31.1445 49.7759 31.1461C49.7738 30.9891 49.7738 30.8321 49.7748 30.6751C50.204 30.5695 50.6336 30.4661 51.06 30.3498C51.401 30.2566 51.7184 30.0685 51.9434 29.792C53.2563 28.1502 54.5581 26.4982 55.8737 24.8585C54.6692 23.2387 53.4492 21.6306 52.2383 20.0151C51.9695 19.6662 51.7312 19.2547 51.3053 19.0784C50.8468 18.8925 50.3562 18.8019 49.8817 18.6664C49.8801 18.5094 49.8801 18.3524 49.8807 18.1954Z" fill="#002147"/>
<path d="M65.5625 18.1964C68.8163 18.1937 72.0701 18.1959 75.3245 18.1954C75.324 19.2756 75.324 20.3553 75.3245 21.435C75.1439 21.4356 74.9643 21.4356 74.7848 21.435C74.5801 20.7786 74.3738 20.1228 74.1686 19.4669C74.1045 19.267 74.0206 19.0559 73.8443 18.9295C73.6861 18.8164 73.4836 18.8078 73.2965 18.8089C71.9739 18.8132 70.6508 18.8046 69.3282 18.8132C69.3336 20.6699 69.3288 22.526 69.3304 24.3822C70.2613 24.3827 71.1922 24.3822 72.1236 24.3827C72.3929 24.3773 72.69 24.4159 72.93 24.2627C73.1384 24.1298 73.234 23.8876 73.3003 23.6598C73.4007 23.3137 73.5001 22.967 73.6022 22.6209C73.7796 22.6219 73.9576 22.6219 74.136 22.6182C74.1467 24.0574 74.1371 25.4967 74.1408 26.936C73.9613 26.9365 73.7823 26.9365 73.6038 26.9381C73.4916 26.5078 73.3879 26.0754 73.2784 25.6446C73.2308 25.4565 73.149 25.2647 72.9882 25.1468C72.8188 25.0155 72.5965 24.9946 72.3902 24.9936C71.3701 24.993 70.3505 24.9936 69.3304 24.9936C69.3315 26.5834 69.3282 28.1732 69.332 29.7631C69.3138 30.0085 69.4656 30.255 69.7119 30.3107C70.2517 30.4425 70.7978 30.5491 71.3391 30.6751C71.3391 30.8294 71.3396 30.9842 71.345 31.1396C69.418 31.152 67.4905 31.1412 65.5636 31.145C65.563 30.988 65.563 30.8315 65.563 30.6756C65.9692 30.5791 66.3742 30.4795 66.7798 30.3814C66.9674 30.33 67.1752 30.285 67.3126 30.1349C67.4259 30.0074 67.4285 29.8252 67.4307 29.6634C67.4285 26.3064 67.4323 22.9488 67.4291 19.5912C67.4504 19.3453 67.296 19.1111 67.0582 19.0447C66.5666 18.8936 66.0605 18.7934 65.563 18.6642C65.563 18.5083 65.563 18.3524 65.5625 18.1964Z" fill="#002147"/>
<path d="M92.1536 18.1954C93.831 18.1954 95.509 18.1954 97.1864 18.1954C98.2065 18.1959 99.2496 18.1798 100.237 18.4751C101.214 18.7591 102.036 19.5124 102.419 20.4555C102.775 21.3016 102.75 22.3079 102.309 23.1181C101.861 23.9653 101.036 24.5536 100.15 24.873C99.9283 24.9614 99.6894 24.9978 99.473 25.0986C99.932 25.3445 100.244 25.7721 100.565 26.1686C101.508 27.3721 102.416 28.6019 103.339 29.8209C103.551 30.1022 103.86 30.3085 104.206 30.3803C104.651 30.4752 105.095 30.577 105.539 30.6745C105.539 30.8299 105.539 30.9858 105.542 31.1418C104.483 31.1466 103.424 31.1477 102.366 31.1412C102.019 31.1402 101.778 30.8556 101.591 30.599C100.588 29.194 99.5868 27.7885 98.5854 26.3824C98.284 25.9768 97.9506 25.5203 97.4274 25.4067C96.9326 25.3081 96.4244 25.3735 95.9242 25.3526C95.9205 26.8261 95.921 28.2997 95.9237 29.7732C95.9076 30.0213 96.069 30.263 96.317 30.3144C96.853 30.4436 97.3943 30.5513 97.9319 30.6751C97.9313 30.8321 97.9313 30.9891 97.9303 31.1461C96.006 31.1445 94.0817 31.1434 92.1574 31.1466C92.1526 30.9891 92.1526 30.8321 92.1542 30.6751C92.6527 30.5465 93.1609 30.4511 93.6526 30.2957C93.8813 30.2303 94.0336 30.0074 94.0181 29.77C94.0218 26.3766 94.0202 22.982 94.0192 19.5885C94.0368 19.3458 93.8893 19.1111 93.6515 19.0452C93.1593 18.8946 92.6527 18.7933 92.1542 18.6653C92.1531 18.5083 92.1531 18.3518 92.1536 18.1954ZM95.9221 18.81C95.9247 20.7888 95.9162 22.7677 95.9263 24.7465C96.488 24.7374 97.0496 24.7487 97.6112 24.7406C98.1686 24.7315 98.7398 24.6442 99.2368 24.3779C99.6221 24.1737 99.9454 23.8533 100.146 23.4643C100.428 22.9343 100.513 22.3235 100.516 21.7292C100.519 21.0851 100.344 20.4277 99.9534 19.9095C99.504 19.3045 98.7863 18.9284 98.043 18.8518C97.3382 18.7778 96.6285 18.8218 95.9221 18.81Z" fill="#002147"/>
<path d="M106.58 18.1954C108.221 18.1954 109.862 18.1954 111.504 18.1954C112.72 18.197 113.952 18.1632 115.148 18.4279C116.132 18.6305 117.071 19.0677 117.835 19.7252C119.138 20.8269 119.864 22.5062 119.98 24.1919C120.09 25.8262 119.752 27.5565 118.735 28.8725C118.14 29.6436 117.325 30.2314 116.426 30.5952C115.472 30.9676 114.442 31.0828 113.426 31.13C111.145 31.1643 108.864 31.1332 106.583 31.1471C106.578 30.9891 106.578 30.8321 106.58 30.6745C107.064 30.554 107.554 30.4489 108.034 30.3118C108.28 30.2528 108.464 30.0278 108.444 29.77C108.449 26.4108 108.444 23.0517 108.447 19.692C108.446 19.5216 108.444 19.327 108.32 19.1958C108.189 19.0618 108 19.0157 107.826 18.9691C107.41 18.87 106.996 18.7644 106.58 18.6664C106.579 18.5094 106.579 18.3524 106.58 18.1954ZM110.349 18.8094C110.349 22.5169 110.349 26.2244 110.349 29.9319C110.354 30.0899 110.344 30.2689 110.446 30.4018C110.562 30.5347 110.755 30.5272 110.917 30.5341C111.558 30.5315 112.2 30.539 112.842 30.5288C113.66 30.5052 114.497 30.4264 115.26 30.1055C116.048 29.7781 116.671 29.1297 117.076 28.3876C117.56 27.4986 117.762 26.4843 117.826 25.4817C117.886 24.4502 117.826 23.4032 117.564 22.4012C117.338 21.5422 116.94 20.7111 116.319 20.0692C115.788 19.5135 115.09 19.1218 114.334 18.9793C113.022 18.7199 111.677 18.8378 110.349 18.8094Z" fill="#002147"/>
<path d="M1.6515 20.3275C2.4568 20.051 3.25837 19.7638 4.06207 19.483C4.10803 19.6041 4.15238 19.7262 4.1962 19.849C3.72915 20.4143 3.27226 20.9882 2.80094 21.5497C3.38608 21.3107 3.97497 21.076 4.56545 20.8483C4.605 20.9673 4.64721 21.0846 4.68997 21.2025C3.90016 21.5149 3.10233 21.8069 2.31412 22.1241C2.26069 22.002 2.21419 21.8771 2.17305 21.7507C2.63689 21.1923 3.09431 20.6281 3.55602 20.0676C2.96232 20.2685 2.37344 20.4839 1.78028 20.6865C1.737 20.567 1.69371 20.447 1.6515 20.3275Z" fill="#002147"/>
<path d="M24.9359 20.3103C25.7108 20.6559 26.4829 21.0085 27.2562 21.3584C27.0948 21.7014 26.9853 22.0759 26.7523 22.3797C26.4519 22.7505 25.7893 22.6182 25.6023 22.1965C25.5595 22.1011 25.5574 21.9955 25.5478 21.8937C25.1133 22.0261 24.65 21.943 24.2028 21.9677C24.2589 21.8385 24.3155 21.7099 24.3679 21.5797C24.7013 21.554 25.0374 21.5942 25.3698 21.554C25.5921 21.5288 25.6616 21.2855 25.7375 21.1114C25.4137 20.971 25.0952 20.8204 24.7729 20.6779C24.8274 20.5557 24.8814 20.433 24.9359 20.3103ZM25.8727 21.8385C25.8898 22.1231 26.2751 22.3036 26.4968 22.1214C26.6411 21.9768 26.6983 21.7726 26.7891 21.5942C26.5471 21.4704 26.2954 21.3681 26.049 21.2545C25.9737 21.442 25.8615 21.629 25.8727 21.8385Z" fill="#002147"/>
<path d="M14.1362 22.4279C14.2826 22.2329 14.406 22.0196 14.5658 21.8353C14.7021 21.793 14.7502 21.9398 14.8186 22.0234C15.0334 22.3444 15.2744 22.6476 15.4785 22.975C15.4171 23.1004 15.2103 23.0436 15.0943 23.109C15.268 23.3641 15.4235 23.6331 15.6244 23.8683C15.8574 23.6684 16.0968 23.4761 16.3234 23.2692C16.2213 23.2012 16.1091 23.1503 15.9985 23.0988C16.2143 22.8668 16.5077 22.7253 16.7546 22.5298C16.8738 22.4622 16.9742 22.3219 17.1223 22.3336C16.9555 22.9825 16.7065 23.6105 16.5173 24.2541C15.906 24.059 15.2589 24.0248 14.6224 24.0178C13.9833 24.0248 13.3346 24.058 12.7217 24.2541C12.5325 23.6534 12.331 23.056 12.137 22.4569C12.097 22.399 12.1285 22.2736 12.2135 22.3422C12.5763 22.5812 12.9418 22.8186 13.2897 23.0795C13.1791 23.1438 13.0663 23.2038 12.9568 23.2698C13.1748 23.4723 13.3966 23.6706 13.6173 23.8699C13.8107 23.6293 13.9737 23.3662 14.142 23.109C14.0132 23.0672 13.8791 23.0442 13.7461 23.0233C13.8422 22.8041 14.0058 22.6262 14.1362 22.4279Z" fill="#002147"/>
<path d="M4.40514 22.5774C4.63492 22.4237 4.92188 22.302 5.19762 22.4054C5.63368 22.5662 5.93293 23.042 5.90086 23.5055C5.88216 23.7783 5.662 23.9728 5.45733 24.1244C5.01113 24.447 4.56385 24.7674 4.11337 25.0836C4.03749 24.9705 3.96054 24.8585 3.88305 24.7471C4.30254 24.4507 4.71882 24.1501 5.13777 23.8527C5.28419 23.7408 5.46909 23.6341 5.51397 23.4407C5.56207 23.1154 5.29114 22.7495 4.94807 22.7655C4.81715 22.78 4.70653 22.8588 4.59805 22.9268C4.15024 23.2322 3.7019 23.5371 3.25356 23.841C3.17714 23.7311 3.10073 23.6207 3.02484 23.5109C3.48548 23.2012 3.9413 22.8829 4.40514 22.5774Z" fill="#002147"/>
<path d="M23.2142 23.3887C23.3953 23.1315 23.5968 22.8898 23.7929 22.6444C24.456 23.1776 25.1219 23.7081 25.7856 24.2412C25.5098 24.5702 25.2736 24.9416 24.9311 25.2063C24.6009 25.4672 24.1231 25.4646 23.7576 25.2802C23.3643 25.0809 23.0341 24.7069 22.9748 24.2584C22.9267 23.9487 23.0394 23.6395 23.2142 23.3887ZM23.3969 23.7724C23.2692 24.0387 23.3499 24.3623 23.5369 24.5793C23.7704 24.8574 24.1295 25.0905 24.5073 25.0059C24.8552 24.9282 25.0455 24.597 25.2662 24.3484C24.7836 23.9583 24.3027 23.5655 23.8121 23.1867C23.6475 23.3603 23.5016 23.5564 23.3969 23.7724Z" fill="#002147"/>
<path d="M13.8284 24.4765C14.5043 24.4197 15.1905 24.4223 15.8601 24.5397C16.0284 24.5777 16.2127 24.604 16.3506 24.716C16.4324 24.7792 16.3399 24.8671 16.2758 24.8933C15.9936 25.0219 15.6794 25.0503 15.3748 25.0836C14.7063 25.1377 14.0282 25.1329 13.3661 25.0161C13.1956 24.9759 13.0054 24.9491 12.8713 24.8264C12.8189 24.738 12.9231 24.6806 12.9894 24.6506C13.255 24.5402 13.5446 24.5081 13.8284 24.4765Z" fill="#002147"/>
<path d="M12.8857 28.9497C13.0973 28.8189 13.3998 28.985 13.4073 29.2326C13.4356 29.4919 13.1283 29.6988 12.9007 29.5707C12.6527 29.4614 12.6436 29.0708 12.8857 28.9497Z" fill="#002147"/>
<path d="M16.4591 29.5289C16.6926 29.396 17.0074 29.6146 16.9673 29.8799C16.9502 30.1392 16.613 30.2887 16.411 30.1247C16.2015 29.9849 16.2309 29.6328 16.4591 29.5289Z" fill="#002147"/>
</svg>
