<svg width="120" height="40" viewBox="0 0 120 40" fill="none" xmlns="http://www.w3.org/2000/svg">
<path d="M45.0133 25.5408C45.0133 29.0719 45.8577 30.0698 48.2885 30.0698V30.9142H37.9255V30.0698C39.9469 30.0698 41.2007 29.4301 41.2007 25.6431V7.75723C41.2007 4.27729 40.3563 3.22819 37.9255 3.22819V2.38379H48.4421C56.3743 2.38379 59.5984 6.55461 59.5984 10.4951C59.5984 15.2289 55.9905 17.8644 49.44 17.8644C48.1862 17.8644 47.1371 17.8132 45.0133 17.5574V25.5408ZM45.0133 16.278C46.3183 16.7386 47.0859 16.7641 48.57 16.7641C52.8432 16.7641 55.5555 14.4612 55.5555 10.5975C55.5811 7.55253 53.8667 3.45848 48.5956 3.45848H45.0133V16.278Z" fill="#243069"/>
<path d="M60.238 20.1418C60.1357 28.074 64.9206 30.0699 67.3259 30.0699C69.7823 30.0699 71.0361 29.2255 73.6205 26.3852V27.6902C71.4711 30.4281 69.3985 31.4772 66.2768 31.4772C60.6986 31.4772 56.6813 27.639 56.6813 22.3168C56.6813 16.9945 60.5963 12.7981 65.6371 12.7981C69.7567 12.7981 73.5693 16.0733 73.339 20.1674H60.238V20.1418ZM69.9358 19.2974C70.0894 15.4081 67.4282 13.8216 65.1509 13.8216C62.1827 13.8216 60.4172 16.0222 60.2125 19.2974H69.9358Z" fill="#243069"/>
<path d="M92.6066 27.0761C92.6066 29.379 93.1184 30.0699 95.626 30.0699V30.9143H86.1329V30.0699C88.5381 30.0699 89.2034 29.5325 89.2034 27.8693V18.6577C89.2034 15.8175 87.1308 14.6148 85.2373 14.6148C83.4718 14.6148 81.9109 15.7151 80.1709 18.0436V26.6667C80.1709 29.3534 80.5292 30.0443 83.1903 30.0443V30.8887H73.7996V30.0699C76.1536 30.0699 76.7677 29.8652 76.7677 26.6923V16.7642C76.7677 14.6148 76.2048 14.1798 73.7996 14.1798V13.3354L79.3265 12.7981H80.1709V16.3292C82.2947 13.9495 84.3417 12.7981 86.5935 12.7981C89.5617 12.7981 92.6322 14.8963 92.6322 19.1183V27.0761H92.6066Z" fill="#243069"/>
<path d="M114.382 27.0761C114.382 29.379 114.894 30.0699 117.401 30.0699V30.9143H107.908V30.0699C110.313 30.0699 110.979 29.5325 110.979 27.8693V18.6577C110.979 15.8175 108.906 14.6148 107.013 14.6148C105.247 14.6148 103.686 15.7151 101.946 18.0436V26.6667C101.946 29.3534 102.304 30.0443 104.966 30.0443V30.8887H95.5748V30.0699C97.9289 30.0699 98.543 29.8652 98.543 26.6923V16.7642C98.543 14.6148 97.9801 14.1798 95.5748 14.1798V13.3354L101.102 12.7981H101.946V16.3292C104.07 13.9495 106.117 12.7981 108.369 12.7981C111.337 12.7981 114.407 14.8963 114.407 19.1183V27.0761H114.382Z" fill="#243069"/>
<path d="M38.9489 36.2619C38.9489 36.9784 39.1536 37.5413 40.0236 37.5413C40.8168 37.5413 41.2262 37.0551 41.2262 36.2363V34.8034C41.2262 34.7011 41.2006 34.5987 41.2006 34.522C41.175 34.3428 40.9703 34.2661 40.7145 34.2405V34.1125H42.0706V34.2405C41.7891 34.2661 41.61 34.3428 41.5844 34.522C41.5844 34.5987 41.5589 34.7011 41.5589 34.8034V36.2619C41.5589 37.3622 40.7656 37.7716 40.0492 37.7716C38.8465 37.7716 38.4627 37.2087 38.4627 36.2875V34.7522C38.4627 34.2661 38.4883 34.2917 37.9766 34.2405V34.1125H39.5118V34.2405C39.0001 34.2917 39.0257 34.2661 39.0257 34.7522V36.2619H38.9489Z" fill="#243069"/>
<path d="M45.2436 37.7205C44.5527 36.9784 43.8107 36.1852 43.0942 35.4176V37.1831C43.0942 37.2599 43.1198 37.3367 43.1198 37.3878C43.1454 37.5414 43.2989 37.5925 43.5804 37.6181V37.7205H42.5057V37.6181C42.7104 37.5925 42.8639 37.5414 42.8895 37.3878C42.8895 37.3367 42.9151 37.2599 42.9151 37.1831V35.3152C42.7871 35.1617 42.6592 35.0337 42.4033 35.0337V34.9314H43.1965C43.8618 35.6479 44.5271 36.3899 45.1924 37.1064V35.4687C45.1924 35.392 45.1668 35.3152 45.1668 35.264C45.1412 35.1105 44.9877 35.0593 44.7062 35.0337V34.9314H45.8065V35.0337C45.6018 35.0593 45.4483 35.1105 45.4227 35.264C45.4227 35.3152 45.3971 35.392 45.3971 35.4687V37.7205H45.2436Z" fill="#243069"/>
<path d="M47.5209 37.2343C47.5209 37.5925 47.4953 37.5925 47.9047 37.6181V37.7205H46.7277V37.6181C47.1115 37.5669 47.1115 37.5925 47.1115 37.2343V35.4432C47.1115 35.0849 47.1371 35.0849 46.7277 35.0593V34.9314H47.9047V35.0337C47.5209 35.0849 47.5209 35.0593 47.5209 35.4176V37.2343Z" fill="#243069"/>
<path d="M49.7726 35.0337C49.5424 35.0337 49.3632 35.0849 49.4912 35.4687C49.6703 35.9293 49.9262 36.6202 50.1565 37.2343C50.4379 36.6202 50.6938 36.0061 50.9753 35.392C51.0776 35.1361 50.9753 35.0082 50.6682 35.0082V34.9314H51.615V35.0337C51.487 35.0337 51.3335 35.0849 51.2567 35.264C50.8985 36.0828 50.5147 36.9017 50.1565 37.6949H49.9006C49.6447 37.004 49.3377 36.2364 49.0562 35.5711C48.9027 35.1361 48.7491 35.0337 48.5444 35.0337V34.9314H49.7471L49.7726 35.0337Z" fill="#243069"/>
<path d="M52.2802 37.6181C52.664 37.5669 52.664 37.5925 52.664 37.2343V35.4432C52.664 35.0849 52.6896 35.0849 52.2802 35.0593V34.9314H54.2505V35.5711H54.1481C54.0969 35.264 54.0202 35.0593 53.6875 35.0593H53.099V36.2108H53.4573C53.7387 36.2108 53.8411 36.1084 53.8667 35.8526H53.969V36.697H53.8667C53.8667 36.4667 53.7643 36.3131 53.4573 36.3131H53.099V37.2343C53.099 37.5669 53.2781 37.5925 53.662 37.5925C54.3017 37.5925 54.2761 37.439 54.4808 37.004H54.5831L54.4552 37.7205H52.2802V37.6181Z" fill="#243069"/>
<path d="M55.2484 34.9314H56.5278C56.9628 34.9314 57.4234 35.1361 57.4234 35.5967C57.4234 36.0061 57.1419 36.2876 56.8093 36.4155L57.2443 37.004C57.4746 37.2855 57.7048 37.5669 57.8584 37.6437V37.6949H57.3978C57.1419 37.6949 56.9884 37.2599 56.4766 36.4667H56.0672V37.2343C56.0672 37.5925 56.0416 37.5925 56.451 37.6181V37.7205H55.274V37.6181C55.6578 37.5669 55.6578 37.5925 55.6578 37.2343V35.4432C55.6578 35.0849 55.6834 35.0849 55.274 35.0593L55.2484 34.9314ZM56.0672 36.3643H56.4255C56.8093 36.3643 56.9884 36.1084 56.9884 35.6479C56.9884 35.2129 56.7325 35.0593 56.3999 35.0593H56.0672V36.3643Z" fill="#243069"/>
<path d="M60.0333 35.5454C60.0077 35.2639 59.8286 35.0337 59.4704 35.0337C59.2145 35.0337 58.9842 35.1616 58.9842 35.4431C58.9842 35.7245 59.2913 35.8781 59.7263 36.1851C60.1868 36.4922 60.3404 36.6969 60.3404 37.0295C60.3404 37.4901 59.803 37.7716 59.2657 37.7716C58.9842 37.7716 58.7539 37.7204 58.5236 37.6436C58.498 37.6436 58.498 37.618 58.498 37.5924V37.0295H58.6004C58.6516 37.4645 58.9586 37.6436 59.3169 37.6436C59.6239 37.6436 59.8798 37.4389 59.8798 37.1319C59.8798 36.876 59.7263 36.6713 59.061 36.2619C58.8307 36.1083 58.5236 35.9548 58.5236 35.5198C58.5236 35.1616 58.9586 34.8801 59.4704 34.8801C59.6495 34.8801 59.9054 34.9057 60.0845 34.9569C60.1101 34.9569 60.1101 34.9825 60.1101 35.0081V35.5198H60.0333V35.5454Z" fill="#243069"/>
<path d="M61.9524 37.2343C61.9524 37.5925 61.9268 37.5925 62.3362 37.6181V37.7205H61.1592V37.6181C61.543 37.5669 61.543 37.5925 61.543 37.2343V35.4432C61.543 35.0849 61.5686 35.0849 61.1592 35.0593V34.9314H62.3362V35.0337C61.9524 35.0849 61.9524 35.0593 61.9524 35.4176V37.2343Z" fill="#243069"/>
<path d="M64.5112 37.2341C64.5112 37.5923 64.4856 37.5923 64.895 37.6179V37.7203H63.718V37.6179C64.1018 37.5667 64.1018 37.5923 64.1018 37.2341V35.0847H63.718C63.3341 35.0847 63.2574 35.315 63.1038 35.5709H62.9503L63.0783 34.9568H65.5091L65.637 35.5709H65.5091C65.3556 35.315 65.2788 35.0847 64.895 35.0847H64.5112V37.2341Z" fill="#243069"/>
<path d="M66.9164 37.6181C67.3002 37.5669 67.3002 37.5925 67.3002 37.2343V36.6202L66.635 35.4176C66.4814 35.1617 66.3791 35.0593 66.1744 35.0593V34.9314H67.3002V35.0337C66.9676 35.0337 66.9932 35.1873 67.0955 35.392L67.6329 36.3899L68.247 35.392C68.4005 35.1617 68.247 35.0337 67.9911 35.0337V34.9314H68.8867V35.0337C68.7587 35.0337 68.6564 35.0849 68.5285 35.264L67.7864 36.4667C67.7352 36.5434 67.7352 36.6458 67.7352 36.7481V37.2343C67.7352 37.5925 67.7096 37.5925 68.1191 37.6181V37.7205H66.942V37.6181H66.9164Z" fill="#243069"/>
<path d="M70.857 36.7735C70.857 36.1082 71.4967 35.0847 72.4434 35.0847C73.2111 35.0847 73.3646 35.5453 73.3646 36.0059C73.3646 36.5688 72.8528 37.7714 71.7782 37.7714C71.0617 37.797 70.857 37.2597 70.857 36.7735ZM72.8528 35.7756C72.8528 35.2382 72.4946 35.2127 72.3923 35.2127C71.7782 35.2127 71.3688 36.2106 71.3688 36.8759C71.3688 37.1317 71.4199 37.6179 71.8549 37.6179C72.5202 37.6435 72.8528 36.6712 72.8528 35.7756Z" fill="#243069"/>
<path d="M76.256 35.264L76.128 35.3663H75.386C75.1045 36.5945 74.6439 38.2322 74.3369 38.9998H74.081L74.8998 35.3663H74.3625L74.4136 35.1616H74.951C75.258 34.0613 76.256 33.959 76.4862 33.959C76.6142 33.959 76.8957 33.9846 76.9724 34.0613L76.8957 34.394L76.7421 34.4452C76.6654 34.3172 76.4862 34.1381 76.2304 34.1381C75.8977 34.1381 75.6419 34.3428 75.4883 34.9057L75.4371 35.1616H76.2815L76.256 35.264Z" fill="#243069"/>
<path d="M79.7359 37.0807C79.7359 37.5669 79.7103 37.5413 80.2221 37.5925V37.7204H78.6868V37.5925C79.1986 37.5413 79.173 37.5669 79.173 37.0807V34.7522C79.173 34.2661 79.1986 34.2917 78.6868 34.2405V34.1125H80.1709C81.1177 34.1125 81.5783 34.4452 81.5783 35.0593C81.5783 35.8013 80.8362 36.2108 79.9662 36.1596V36.0572C80.6827 36.0572 81.0153 35.6734 81.0153 35.1105C81.0153 34.522 80.7083 34.2661 80.0686 34.2661H79.7103V37.0807H79.7359Z" fill="#243069"/>
<path d="M82.3715 37.6181C82.7553 37.5669 82.7553 37.5925 82.7553 37.2343V35.4432C82.7553 35.0849 82.7809 35.0849 82.3715 35.0593V34.9314H84.3418V35.5711H84.2394C84.1883 35.264 84.1115 35.0593 83.7789 35.0593H83.1903V36.2108H83.5486C83.83 36.2108 83.9324 36.1084 83.958 35.8526H84.0603V36.697H83.958C83.958 36.4667 83.8556 36.3131 83.5486 36.3131H83.1903V37.2343C83.1903 37.5669 83.3694 37.5925 83.7533 37.5925C84.393 37.5925 84.3674 37.439 84.5721 37.004H84.6744L84.5465 37.7205H82.3715V37.6181Z" fill="#243069"/>
<path d="M88.1543 37.7205C87.4635 36.9784 86.7214 36.1852 86.005 35.4176V37.1831C86.005 37.2599 86.0305 37.3367 86.0305 37.3878C86.0561 37.5414 86.2097 37.5925 86.4911 37.6181V37.7205H85.4164V37.6181C85.6211 37.5925 85.7747 37.5414 85.8003 37.3878C85.8003 37.3367 85.8258 37.2599 85.8258 37.1831V35.3152C85.6979 35.1617 85.57 35.0337 85.3141 35.0337V34.9314H86.1073C86.7726 35.6479 87.4379 36.3899 88.1032 37.1064V35.4687C88.1032 35.392 88.0776 35.3152 88.0776 35.264C88.052 35.1105 87.8985 35.0593 87.617 35.0337V34.9314H88.6917V35.0337C88.487 35.0593 88.3335 35.1105 88.3079 35.264C88.3079 35.3152 88.2823 35.392 88.2823 35.4687V37.7205H88.1543Z" fill="#243069"/>
<path d="M92.0949 37.7205C91.404 36.9784 90.662 36.1852 89.9455 35.4176V37.1831C89.9455 37.2599 89.9711 37.3367 89.9711 37.3878C89.9967 37.5414 90.1502 37.5925 90.4317 37.6181V37.7205H89.357V37.6181C89.5617 37.5925 89.7152 37.5414 89.7408 37.3878C89.7408 37.3367 89.7664 37.2599 89.7664 37.1831V35.3152C89.6385 35.1617 89.5105 35.0337 89.2546 35.0337V34.9314H90.0479C90.7131 35.6479 91.3784 36.3899 92.0437 37.1064V35.4687C92.0437 35.392 92.0181 35.3152 92.0181 35.264C91.9925 35.1105 91.839 35.0593 91.5575 35.0337V34.9314H92.6322V35.0337C92.4275 35.0593 92.274 35.1105 92.2484 35.264C92.2484 35.3152 92.2228 35.392 92.2228 35.4687V37.7205H92.0949Z" fill="#243069"/>
<path d="M94.9607 35.5454C94.9352 35.2639 94.756 35.0337 94.3978 35.0337C94.1419 35.0337 93.9116 35.1616 93.9116 35.4431C93.9116 35.7245 94.2187 35.8781 94.6537 36.1851C95.1143 36.4922 95.2678 36.6969 95.2678 37.0295C95.2678 37.4901 94.7305 37.7716 94.1931 37.7716C93.9116 37.7716 93.6814 37.7204 93.4511 37.6436C93.4255 37.6436 93.4255 37.618 93.4255 37.5924V37.0295H93.5278C93.579 37.4645 93.8861 37.6436 94.2443 37.6436C94.5513 37.6436 94.8072 37.4389 94.8072 37.1319C94.8072 36.876 94.6537 36.6713 93.9884 36.2619C93.7581 36.1083 93.4511 35.9548 93.4511 35.5198C93.4511 35.1616 93.8861 34.8801 94.3978 34.8801C94.5769 34.8801 94.8328 34.9057 95.0119 34.9569C95.0375 34.9569 95.0375 34.9825 95.0375 35.0081V35.5198H94.9607V35.5454Z" fill="#243069"/>
<path d="M96.7263 37.6181C97.1101 37.5669 97.1101 37.5925 97.1101 37.2343V36.6202L96.4448 35.4176C96.2913 35.1617 96.189 35.0593 95.9843 35.0593V34.9314H97.1101V35.0337C96.7775 35.0337 96.8031 35.1873 96.9054 35.392L97.4428 36.3899L98.0569 35.392C98.2104 35.1617 98.0569 35.0337 97.801 35.0337V34.9314H98.6966V35.0337C98.5686 35.0337 98.4663 35.0849 98.3383 35.264L97.5963 36.4667C97.5451 36.5434 97.5451 36.6458 97.5451 36.7481V37.2343C97.5451 37.5925 97.5195 37.5925 97.9289 37.6181V37.7205H96.7263V37.6181Z" fill="#243069"/>
<path d="M99.413 37.6181C99.7968 37.5669 99.7968 37.5925 99.7968 37.2343V35.4432C99.7968 35.0849 99.8224 35.0849 99.413 35.0593V34.9314H100.59V35.0337C100.206 35.0849 100.206 35.0593 100.206 35.4176V37.2599C100.206 37.5414 100.385 37.5669 100.769 37.5669C101.409 37.5669 101.383 37.4134 101.588 36.9784H101.69L101.562 37.6949H99.413V37.6181Z" fill="#243069"/>
<path d="M103.226 35.0337C102.995 35.0337 102.816 35.0849 102.944 35.4687C103.123 35.9293 103.379 36.6202 103.609 37.2343C103.891 36.6202 104.147 36.0061 104.428 35.392C104.531 35.1361 104.428 35.0082 104.121 35.0082V34.9314H105.068V35.0337C104.94 35.0337 104.786 35.0849 104.71 35.264C104.351 36.0828 103.968 36.9017 103.609 37.6949H103.379C103.123 37.004 102.816 36.2364 102.535 35.5711C102.381 35.1361 102.228 35.0337 102.023 35.0337V34.9314H103.226V35.0337Z" fill="#243069"/>
<path d="M105.81 36.7992L105.605 37.3366C105.554 37.4901 105.631 37.618 105.836 37.618V37.7204H105.042V37.618C105.17 37.618 105.298 37.5413 105.349 37.4133C105.528 37.0551 106.04 35.7501 106.424 34.8801H106.68C106.987 35.6733 107.422 36.9016 107.575 37.2598C107.678 37.4901 107.755 37.618 107.934 37.618V37.7204H106.91V37.618C107.192 37.618 107.217 37.4901 107.14 37.311L106.961 36.7992H105.81ZM106.885 36.6457L106.424 35.3407L105.912 36.6457H106.885Z" fill="#243069"/>
<path d="M111.311 37.7205C110.62 36.9784 109.878 36.1852 109.162 35.4176V37.1831C109.162 37.2599 109.188 37.3367 109.188 37.3878C109.213 37.5414 109.367 37.5925 109.648 37.6181V37.7205H108.573V37.6181C108.778 37.5925 108.932 37.5414 108.957 37.3878C108.957 37.3367 108.983 37.2599 108.983 37.1831V35.3152C108.855 35.1617 108.727 35.0337 108.471 35.0337V34.9314H109.264C109.93 35.6479 110.595 36.3899 111.26 37.1064V35.4687C111.26 35.392 111.235 35.3152 111.235 35.264C111.209 35.1105 111.055 35.0593 110.774 35.0337V34.9314H111.849V35.0337C111.644 35.0593 111.49 35.1105 111.465 35.264C111.465 35.3152 111.439 35.392 111.439 35.4687V37.7205H111.311Z" fill="#243069"/>
<path d="M113.384 37.2343C113.384 37.5925 113.358 37.5925 113.768 37.6181V37.7205H112.591V37.6181C112.975 37.5669 112.975 37.5925 112.975 37.2343V35.4432C112.975 35.0849 113 35.0849 112.591 35.0593V34.9314H113.768V35.0337C113.384 35.0849 113.384 35.0593 113.384 35.4176V37.2343Z" fill="#243069"/>
<path d="M115.226 36.7992L115.022 37.3366C114.97 37.4901 115.047 37.618 115.252 37.618V37.7204H114.459V37.618C114.587 37.618 114.714 37.5413 114.766 37.4133C114.945 37.0551 115.482 35.7501 115.84 34.8801H116.096C116.403 35.6733 116.838 36.9016 116.992 37.2598C117.094 37.4901 117.171 37.618 117.35 37.618V37.7204H116.327V37.618C116.608 37.618 116.634 37.4901 116.557 37.311L116.378 36.7992H115.226ZM116.275 36.6457L115.815 35.3407L115.303 36.6457H116.275Z" fill="#243069"/>
<path d="M2.00014 2H34.7014C34.7014 2 34.7014 18.1459 34.7014 18.4274C34.4711 31.8098 19.5534 38.8465 17.6599 38.7953C15.7152 38.7185 1.94897 31.8354 2.00014 18.3762C2.00014 18.1203 2.00014 2 2.00014 2Z" fill="white" stroke="white" stroke-width="0.366853"/>
<path d="M2.79336 2.86987H33.9337C33.9337 2.86987 33.9337 18.2482 33.9337 18.504C33.729 31.2468 19.5022 37.9508 17.7111 37.8996C15.8432 37.8229 2.74219 31.2724 2.79336 18.4529C2.79336 18.2226 2.79336 2.86987 2.79336 2.86987Z" fill="white"/>
<path d="M2.79333 12.3886C2.84451 12.4398 2.79333 2.89551 2.79333 2.89551H33.9081C33.9081 2.89551 33.9081 8.01307 33.9081 12.3886H2.79333Z" fill="#961B1F"/>
<path d="M4.53339 26.3083C5.73601 28.8415 7.22011 30.863 9.29272 32.6029L18.3508 23.3913L27.0763 32.3727C28.8674 30.7094 30.633 28.7136 31.8868 26.3595L18.3508 13.2585L4.61015 26.3083H4.53339Z" fill="#243069"/>
<path d="M2.79333 12.4397H33.9081" stroke="#243069" stroke-width="0.184898"/>
<path d="M26.1039 5.2495H26.9483C27.5624 5.09598 27.7927 4.73775 28.4324 4.73775C28.893 4.73775 29.0977 5.0448 29.4303 5.0448C29.7118 5.0448 30.1468 4.71216 30.6329 4.71216C31.1191 4.71216 31.375 5.01921 31.682 5.14715C31.9635 5.27509 32.3473 5.27509 32.7311 5.27509C32.7311 5.55656 32.7311 5.73567 32.7311 5.96596C32.7311 6.22184 33.0638 6.11949 33.0638 6.50331C33.0638 6.91271 32.6544 6.83595 32.6544 7.01506L32.6288 8.57592C32.6544 8.78062 33.0382 8.80621 33.0382 9.08768C33.0382 9.52267 32.6032 9.36914 32.6288 9.72737C32.6544 9.98325 32.6288 10.5206 32.6288 10.5206C31.7844 10.5206 26.4109 10.5718 26.1551 10.5718C26.1806 10.0088 26.2574 10.0344 26.283 9.75296C26.3086 9.52267 25.7968 9.39473 25.7968 9.01091C25.7968 8.75503 26.1039 8.75504 26.1295 8.52474V6.98948C26.1039 6.78477 25.6689 6.68242 25.6689 6.40095C25.6945 6.04272 26.0783 6.0939 26.0783 5.86361C26.1039 5.71008 26.1295 5.32627 26.1039 5.2495Z" fill="white" stroke="#243069" stroke-width="0.185077"/>
<path d="M26.7948 5.2751C26.7948 5.2751 26.7948 8.72946 26.7948 9.54827C26.7948 9.54827 31.81 9.54827 32.0403 9.54827C32.0403 8.62711 32.0403 5.24951 32.0403 5.24951" stroke="#243069" stroke-width="0.184898"/>
<path d="M29.4303 5.04492V9.54838" stroke="#243069" stroke-width="0.184898"/>
<path d="M29.507 9.01094C29.7373 9.01094 30.1211 9.16447 30.5305 9.29241C31.0423 9.44594 31.5796 9.34359 31.989 9.42035C32.117 9.44594 29.507 9.47152 29.507 9.47152C29.507 8.95977 29.507 9.01094 29.507 9.01094Z" fill="#243069" stroke="#243069" stroke-width="0.184898"/>
<path d="M29.4287 10.016C29.6265 10.016 29.7869 9.85564 29.7869 9.65779C29.7869 9.45995 29.6265 9.29956 29.4287 9.29956C29.2308 9.29956 29.0704 9.45995 29.0704 9.65779C29.0704 9.85564 29.2308 10.016 29.4287 10.016Z" fill="#243069" stroke="#243069" stroke-width="0.184898"/>
<path d="M29.2768 9.01094C29.0465 9.01094 28.6627 9.16447 28.2533 9.29241C27.7415 9.44594 27.2042 9.34359 26.7948 9.42035C26.6668 9.44594 29.2768 9.47152 29.2768 9.47152C29.2768 8.95977 29.2768 9.01094 29.2768 9.01094Z" fill="#243069" stroke="#243069" stroke-width="0.184898"/>
<path d="M12.0306 10.9556C12.1073 11.2883 12.3632 11.493 12.7726 11.493C13.5146 11.493 14.2567 10.9301 14.6917 10.623C15.0243 10.3671 15.3826 10.1112 15.3826 9.5739L15.3314 9.7786C15.3314 9.7786 15.9199 9.19008 17.3784 9.65066C17.7878 9.7786 19.5022 10.7509 19.886 10.9045C20.2187 11.0324 21.3445 11.8512 23.0845 11.5442C23.0845 11.5442 25.7712 11.1859 25.1571 8.39686C24.7221 6.40101 24.8501 6.27307 25.0292 5.63338C24.978 5.60779 23.3916 5.24956 23.4171 7.45011C22.7263 7.52688 21.8563 8.03863 22.4192 9.39479C22.6495 9.03656 22.9566 8.67833 23.3916 8.67833C23.6474 8.67833 23.9545 9.06215 23.9545 9.34361C24.0057 10.0345 23.3148 10.3415 22.4448 10.188C22.0098 10.1112 21.6004 9.62508 21.0119 9.19008C21.1142 9.13891 21.2166 8.78068 21.2166 8.62715C21.2166 8.26892 20.9095 8.11539 20.7048 7.98746C20.756 7.85952 20.8328 7.70599 20.8328 7.57805C20.8328 7.29658 20.449 7.32217 20.2954 7.21982C20.3466 7.14306 20.3466 7.19423 20.3466 7.06629C20.3466 6.65689 20.3978 6.4266 19.579 6.45219C19.6557 6.04278 19.5534 5.7869 19.2719 5.68455L18.6834 5.65896C18.2996 5.5822 18.6834 5.45426 18.3252 5.12162C18.0181 4.81457 17.5064 5.12162 17.5064 5.12162C17.5064 4.84015 17.3016 4.60986 16.969 4.60986C16.7899 4.60986 16.5596 4.63545 16.4317 4.68663L16.1758 4.89133C15.8687 4.89133 15.792 4.60986 15.4081 4.60986C15.0499 4.60986 14.8964 4.89133 14.7685 5.07044C14.5126 4.9425 14.487 4.7378 14.1543 4.7378C13.9496 4.7378 13.8985 4.94251 13.8217 5.04486C13.617 5.27515 13.617 5.53102 13.2844 5.65896L13.1564 5.42867C13.1564 5.40309 13.1564 5.40309 13.1564 5.3775C12.6703 5.60779 11.5444 8.16657 11.5444 8.70392C11.5444 9.21567 11.9794 8.98538 11.9794 9.52273C11.9794 9.82978 11.5188 10.0601 11.5188 10.3415C11.5188 10.6742 11.9026 10.8533 12.2608 10.8533L12.0306 10.9556Z" fill="white" stroke="#243069" stroke-width="0.184898"/>
<path d="M13.2076 8.8064C13.2076 8.8064 13.7449 9.0111 13.7449 9.13904C13.7449 9.29256 13.3867 9.47168 13.1564 9.67638H12.8494C12.9517 9.31815 12.8494 9.44609 12.8494 9.13904C12.875 8.90875 13.1052 8.8064 13.2076 8.8064Z" fill="#243069" stroke="#243069" stroke-width="0.184898"/>
<path d="M15.2035 7.85946C15.485 7.73152 15.357 7.37329 15.8176 7.37329C16.227 7.37329 16.3805 7.65476 16.7388 7.65476C16.9946 7.65476 17.1482 7.39888 17.5064 7.39888C17.8134 7.39888 18.1973 7.80828 18.1461 8.29445C18.1461 8.29445 19.1952 7.93622 19.144 9.08767C19.9884 8.80621 19.9117 9.49708 19.9884 9.82972C20.0652 10.1624 20.6281 9.8809 20.5258 10.5718" stroke="#243069" stroke-width="0.184898"/>
<path d="M3.97041 5.27514H4.81481C5.42891 5.12161 5.6592 4.76338 6.2989 4.76338C6.75948 4.76338 6.96418 5.07043 7.29682 5.07043C7.57829 5.07043 8.01328 4.73779 8.49945 4.73779C8.98562 4.73779 9.2415 5.04485 9.54855 5.17279C9.83002 5.30073 10.2138 5.30073 10.5977 5.30073C10.5977 5.58219 10.5977 5.76131 10.5977 5.9916C10.5977 6.24748 10.9303 6.14512 10.9303 6.52894C10.9303 6.93835 10.5209 6.86158 10.5209 7.0407L10.4953 8.60155C10.5209 8.80626 10.9047 8.83185 10.9047 9.11331C10.9047 9.5483 10.4697 9.39478 10.4953 9.75301C10.5209 10.0089 10.4953 10.5462 10.4953 10.5462C9.6509 10.5462 4.37981 10.5462 4.12393 10.5462C4.14952 9.9833 4.12393 10.0601 4.12393 9.77859C4.14952 9.5483 3.63777 9.42037 3.63777 9.03655C3.63777 8.78067 3.94482 8.78067 3.97041 8.55038V7.01511C3.94482 6.81041 3.50983 6.70806 3.50983 6.42659C3.53541 6.06836 3.91923 6.11954 3.91923 5.88925C3.97041 5.73572 3.97041 5.37749 3.97041 5.27514Z" fill="white" stroke="#243069" stroke-width="0.185077"/>
<path d="M4.66125 5.30073C4.66125 5.30073 4.66125 8.75509 4.66125 9.5739C4.66125 9.5739 9.67647 9.5739 9.90676 9.5739C9.90676 8.65274 9.90676 5.27515 9.90676 5.27515" stroke="#243069" stroke-width="0.184898"/>
<path d="M7.27124 5.07056V9.57401" stroke="#243069" stroke-width="0.184898"/>
<path d="M7.37366 9.03658C7.60395 9.03658 7.98776 9.1901 8.39717 9.31804C8.90893 9.47157 9.44627 9.36922 9.85568 9.44598C9.98362 9.47157 7.37366 9.49716 7.37366 9.49716C7.37366 8.9854 7.37366 9.03658 7.37366 9.03658Z" fill="#243069" stroke="#243069" stroke-width="0.184898"/>
<path d="M7.27791 10.0487C7.47575 10.0487 7.63614 9.88835 7.63614 9.69051C7.63614 9.49266 7.47575 9.33228 7.27791 9.33228C7.08006 9.33228 6.91968 9.49266 6.91968 9.69051C6.91968 9.88835 7.08006 10.0487 7.27791 10.0487Z" fill="#243069" stroke="#243069" stroke-width="0.184898"/>
<path d="M7.14331 9.03658C6.91302 9.03658 6.5292 9.1901 6.1198 9.31804C5.60804 9.47157 5.0707 9.36922 4.66129 9.44598C4.53335 9.47157 7.14331 9.49716 7.14331 9.49716C7.11772 8.9854 7.14331 9.03658 7.14331 9.03658Z" fill="#243069" stroke="#243069" stroke-width="0.184898"/>
<path d="M10.8589 27.8875C12.3568 27.8875 13.5712 26.7076 13.5712 25.252C13.5712 23.7964 12.3568 22.6165 10.8589 22.6165C9.36089 22.6165 8.14655 23.7964 8.14655 25.252C8.14655 26.7076 9.36089 27.8875 10.8589 27.8875Z" fill="white" stroke="#243069" stroke-width="0.185077"/>
<path d="M18.3258 21.5633C19.8238 21.5633 21.0381 20.3834 21.0381 18.9278C21.0381 17.4722 19.8238 16.2922 18.3258 16.2922C16.8279 16.2922 15.6135 17.4722 15.6135 18.9278C15.6135 20.3834 16.8279 21.5633 18.3258 21.5633Z" fill="white" stroke="#243069" stroke-width="0.184974"/>
<path d="M25.3629 27.8875C26.8609 27.8875 28.0752 26.7076 28.0752 25.252C28.0752 23.7964 26.8609 22.6165 25.3629 22.6165C23.8649 22.6165 22.6506 23.7964 22.6506 25.252C22.6506 26.7076 23.8649 27.8875 25.3629 27.8875Z" fill="white" stroke="#243069" stroke-width="0.185077"/>
<path d="M21.0631 9.13905C20.3722 8.37142 19.7581 7.47584 19.6558 7.42467C19.3231 7.27114 18.5043 5.65911 16.3038 5.53117C15.7408 5.50558 13.6426 5.71028 13.5659 6.24763" stroke="#243069" stroke-width="0.184898"/>
<path d="M15.4081 9.72762C15.4081 9.67644 15.4081 9.62527 15.4081 9.5485C15.4081 9.47174 14.8964 9.52291 14.7684 9.47174C14.6917 9.44615 14.9987 9.31821 14.9476 9.31821C15.2546 9.19027 16.0734 8.83204 15.792 8.57616C15.5105 8.32029 15.357 8.03882 15.2034 7.8597C14.9987 7.62941 14.7684 7.50148 14.3846 7.50148C14.052 7.50148 13.5402 8.06441 13.3355 8.21793C13.489 8.06441 13.9496 7.68059 13.9496 7.34795C13.9496 6.6059 13.3611 5.96621 13.2076 5.37769" stroke="#243069" stroke-width="0.184898"/>
<path d="M12.2609 10.8534C12.8494 10.8534 13.1564 10.8023 13.4379 10.6743C13.745 10.5208 14.2823 10.1882 14.4102 9.8811" stroke="#243069" stroke-width="0.184898"/>
<path d="M2.79336 2.86987H33.9337C33.9337 2.86987 33.9337 18.2482 33.9337 18.504C33.729 31.2468 19.5022 37.9508 17.7111 37.8996C15.8432 37.8484 2.74219 31.2724 2.79336 18.4529C2.79336 18.2226 2.79336 2.86987 2.79336 2.86987Z" stroke="#243069" stroke-width="0.366853"/>
</svg>
