<svg width="120" height="40" viewBox="0 0 120 40" fill="none" xmlns="http://www.w3.org/2000/svg">
<path d="M75.9777 26.7649V25.0126H85.2485V14.9714H77.8418V22.1096H75.9827V13.2067C76.0523 13.2042 76.1244 13.1968 76.1989 13.1968C78.7962 13.1968 81.3935 13.1918 83.9883 13.1968C85.5815 13.2018 86.8342 14.2258 87.125 15.7444C87.1647 15.9507 87.1797 16.1619 87.1797 16.3732C87.1846 18.7667 87.1846 21.1602 87.1821 23.5561C87.1821 25.4227 85.8251 26.7698 83.9585 26.7673C81.4159 26.7673 78.8733 26.7673 76.3332 26.7673H75.9753L75.9777 26.7649Z" fill="black"/>
<path d="M3.38518 21.9902V20.0863H9.98654V15.0781H1.93865V26.7448H0.00994179C0.00745634 26.6653 0 26.5833 0 26.5013C0 23.0863 0 19.6688 0 16.2538C0 14.5438 1.3844 13.1519 3.0919 13.1494C4.67513 13.1445 6.25836 13.1494 7.84159 13.1494C10.1183 13.1494 12.0047 14.9911 12.0768 17.2653C12.1315 18.9952 11.4952 20.3672 10.0139 21.3017C9.35275 21.7193 8.61954 21.9057 7.83414 21.9156C6.46963 21.933 5.10511 21.9653 3.7406 21.9927C3.63124 21.9927 3.52437 21.9927 3.38518 21.9927V21.9902Z" fill="black"/>
<path d="M115.536 26.8368C114.868 26.8368 114.246 26.8418 113.625 26.8294C113.558 26.8294 113.468 26.7175 113.433 26.638C112.986 25.6413 112.544 24.6447 112.111 23.643C112.042 23.484 111.96 23.4268 111.783 23.4268C109.591 23.4318 107.401 23.4318 105.209 23.4268C105.035 23.4268 104.951 23.479 104.881 23.643C104.454 24.6471 104.009 25.6438 103.579 26.6454C103.519 26.7871 103.447 26.8468 103.285 26.8443C102.709 26.8343 102.132 26.8393 101.523 26.8393C101.553 26.7548 101.57 26.6927 101.598 26.633C103.574 22.2313 105.55 17.8296 107.521 13.4253C107.603 13.2389 107.7 13.1743 107.901 13.1818C108.328 13.1992 108.758 13.1967 109.188 13.1818C109.372 13.1743 109.459 13.234 109.536 13.4055C110.655 15.9207 111.781 18.431 112.904 20.9438C113.732 22.793 114.559 24.6447 115.387 26.4938C115.432 26.5933 115.474 26.6927 115.536 26.8368ZM108.485 15.4212C107.56 17.5363 106.663 19.5917 105.758 21.6671H111.246C110.327 19.5843 109.417 17.5313 108.485 15.4212Z" fill="black"/>
<path d="M56.6732 13.1597H58.5373V24.8388H66.1378V13.1671H68.0019C68.0069 13.2417 68.0143 13.3237 68.0143 13.4057C68.0143 16.8282 68.0168 20.2531 68.0143 23.6756C68.0143 25.3856 66.6225 26.7625 64.91 26.765C63.2174 26.765 61.5248 26.765 59.8347 26.765C58.0626 26.765 56.6757 25.4378 56.6658 23.6681C56.6459 20.2134 56.6608 16.7586 56.6608 13.3063C56.6608 13.269 56.6682 13.2293 56.6732 13.1622V13.1597Z" fill="black"/>
<path d="M50.5441 26.7624C49.9228 26.7624 49.3312 26.7674 48.7397 26.7525C48.69 26.7525 48.6154 26.6332 48.5955 26.5561C48.2923 25.4426 47.9965 24.3267 47.6983 23.2132C47.0098 20.6283 46.3189 18.0459 45.6379 15.4611C45.5931 15.2921 45.5186 15.2424 45.3495 15.2448C44.1888 15.2523 43.0257 15.2548 41.8649 15.2448C41.6686 15.2448 41.5841 15.297 41.5344 15.4934C40.5601 19.1694 39.5783 22.8429 38.5991 26.5188C38.5792 26.5934 38.5568 26.668 38.5344 26.75H36.6356C36.7002 26.4915 36.7598 26.2529 36.822 26.0143C37.6596 22.8503 38.4996 19.6863 39.3397 16.5224C39.6454 15.3691 40.232 14.4023 41.2312 13.7138C43.0977 12.4288 46.4009 12.737 47.6014 15.809C47.9543 16.7113 48.1482 17.6781 48.3967 18.6201C49.0926 21.2348 49.7836 23.8495 50.4745 26.4666C50.4969 26.5561 50.5168 26.6456 50.5441 26.7624Z" fill="black"/>
<path d="M19.5878 13.1597H21.5116V24.8487H31.257C31.0855 25.4999 30.9215 26.1213 30.7525 26.765C30.663 26.765 30.581 26.765 30.4965 26.765C27.8917 26.765 25.2895 26.765 22.6847 26.765C21.0468 26.765 19.6823 25.4676 19.5953 23.8272C19.5878 23.7029 19.5878 23.5787 19.5878 23.4519C19.5878 20.114 19.5878 16.7785 19.5878 13.4405C19.5878 13.356 19.5878 13.2715 19.5878 13.1597Z" fill="black"/>
<path d="M118.191 13.1868H120V26.8195H118.191V13.1868Z" fill="black"/>
<path d="M43.5923 18.2969C44.4995 18.2969 45.2277 19.0301 45.2227 19.9348C45.2178 20.8296 44.4945 21.5529 43.5972 21.5578C42.6925 21.5628 41.9568 20.8296 41.9568 19.9274C41.9568 19.0202 42.6826 18.2944 43.5923 18.2944V18.2969Z" fill="#C7161E"/>
<path d="M95.6874 25.4301C95.6874 26.1359 95.1306 26.6877 94.4248 26.6902C93.7239 26.6902 93.1572 26.131 93.1547 25.4326C93.1497 24.7317 93.7288 24.1526 94.4347 24.155C95.1306 24.155 95.6899 24.7267 95.6874 25.4301Z" fill="black"/>
</svg>
