<svg width="120" height="40" viewBox="0 0 120 40" fill="none" xmlns="http://www.w3.org/2000/svg">
<path fill-rule="evenodd" clip-rule="evenodd" d="M85.6998 3C84.585 4.32786 83.6375 5.6775 82.8571 7.04891C82.077 8.39855 81.4415 9.76992 80.951 11.1631C80.4604 12.5563 80.1039 13.9603 79.881 15.3753C79.6578 16.7902 79.5354 18.2051 79.5128 19.6201C79.5576 22.4935 80.0481 25.3125 80.9844 28.0771C81.9207 30.8198 83.4816 33.5191 85.6663 36.1748H81.3858C80.4269 34.9994 79.5911 33.7368 78.8777 32.3872C78.1643 31.0593 77.5732 29.6879 77.1052 28.273C76.6369 26.8363 76.2804 25.3887 76.035 23.9302C75.8121 22.4717 75.7006 21.035 75.7006 19.6201C75.7006 18.2051 75.8121 16.7684 76.035 15.31C76.2804 13.8297 76.6369 12.3713 77.1052 10.9345C77.5958 9.49783 78.1978 8.11553 78.9112 6.78767C79.6246 5.43805 80.4604 4.17548 81.4193 3H85.6998ZM69.1564 31.101H65.6483L65.4515 28.7077C64.8176 29.6256 64.0198 30.2813 63.0581 30.6747C62.0963 31.0682 61.0144 31.2867 59.8121 31.3304C58.479 31.3086 57.3314 31.0682 56.3696 30.6092C55.4079 30.1284 54.6101 29.4945 53.9762 28.7077C53.3424 27.899 52.8724 26.9701 52.5664 25.921C52.2824 24.8719 52.1403 23.7572 52.1403 22.577C52.1403 21.2875 52.3043 20.0963 52.6318 19.0034C52.9816 17.9106 53.4953 16.9599 54.173 16.1512C54.8507 15.3425 55.681 14.7087 56.6647 14.2497C57.6483 13.7688 58.7959 13.5284 60.1074 13.5284C61.0473 13.5284 61.9981 13.6814 62.9598 13.9874C63.9216 14.2934 64.7413 14.8617 65.4186 15.6922V4.67114L69.1564 7.68332V31.101ZM60.5336 16.9052C59.7029 16.9052 58.9927 17.0473 58.4023 17.3314C57.8123 17.6156 57.3204 18.009 56.9272 18.5117C56.5555 19.0144 56.2823 19.6154 56.1075 20.3148C55.9326 20.9924 55.845 21.7246 55.845 22.5114C55.845 23.2982 55.9326 24.0304 56.1075 24.708C56.2823 25.3855 56.5555 25.9756 56.9272 26.4783C57.3204 26.981 57.8123 27.3854 58.4023 27.6914C59.0143 27.9755 59.7467 28.1175 60.5993 28.1175C61.4077 28.1175 62.1073 27.9646 62.6973 27.6586C63.3096 27.3307 63.8121 26.9045 64.2057 26.38C64.6208 25.8554 64.9268 25.2544 65.1236 24.5768C65.3204 23.8993 65.4186 23.1999 65.4186 22.4786C65.4186 21.7136 65.3204 20.9924 65.1236 20.3148C64.9487 19.6373 64.6646 19.0581 64.2714 18.5773C63.8778 18.0746 63.375 17.6811 62.763 17.397C62.1511 17.091 61.4077 16.9271 60.5336 16.9052ZM33.6737 13.5286C35.0507 13.5286 36.2638 13.7471 37.313 14.1842C38.3621 14.6214 39.2473 15.2334 39.9687 16.0202C40.7118 16.7851 41.2693 17.714 41.6407 18.8069C42.0124 19.8997 42.1982 21.1127 42.1982 22.446C42.1982 23.801 42.0124 25.025 41.6407 26.1178C41.2912 27.1888 40.7556 28.1177 40.0341 28.9045C39.313 29.6913 38.4168 30.2924 37.3458 30.7077C36.2966 31.1229 35.0726 31.3306 33.6737 31.3306C32.2966 31.3306 31.0835 31.1229 30.0343 30.7077C28.9852 30.2705 28.0999 29.6695 27.3786 28.9045C26.6792 28.1177 26.1437 27.1779 25.7721 26.0851C25.4224 24.9922 25.2475 23.7792 25.2475 22.446C25.2475 21.1127 25.4224 19.8997 25.7721 18.8069C26.1437 17.714 26.6901 16.7851 27.4114 16.0202C28.1327 15.2334 29.018 14.6214 30.0671 14.1842C31.1163 13.7471 32.3185 13.5286 33.6737 13.5286ZM33.6737 28.0849C34.5261 28.0849 35.2474 27.9428 35.8376 27.6587C36.4496 27.3527 36.9414 26.9484 37.313 26.4457C37.7064 25.943 37.9906 25.3529 38.1654 24.6753C38.3621 23.9978 38.4605 23.2656 38.4605 22.4788C38.4605 21.6919 38.3621 20.9597 38.1654 20.2822C37.9906 19.5828 37.7064 18.9817 37.313 18.479C36.9414 17.9763 36.4496 17.5829 35.8376 17.2988C35.2474 17.0147 34.5261 16.8726 33.6737 16.8726C32.8431 16.8726 32.1327 17.0147 31.5425 17.2988C30.9524 17.5829 30.4606 17.9763 30.0671 18.479C29.6737 18.9817 29.3786 19.5828 29.1819 20.2822C29.007 20.9597 28.9196 21.6919 28.9196 22.4788C28.9196 23.2656 29.007 23.9978 29.1819 24.6753C29.3786 25.3529 29.6627 25.943 30.0343 26.4457C30.4278 26.9484 30.9196 27.3527 31.5098 27.6587C32.1217 27.9428 32.8431 28.0849 33.6737 28.0849ZM11.1311 13.4302H7L13.4917 30.7076H18.3114L24.8031 13.4302H20.672L15.9179 27.1341L11.1311 13.4302ZM106.716 28.0444C105.78 30.809 104.208 33.5191 102.001 36.1748H106.248C107.207 34.9994 108.043 33.7368 108.756 32.3872C109.47 31.0593 110.06 29.6879 110.528 28.273C111.019 26.8363 111.387 25.3887 111.632 23.9302C111.877 22.45 112 21.0023 112 19.5874C112 18.1725 111.877 16.7358 111.632 15.2773C111.409 13.7971 111.052 12.3495 110.562 10.9345C110.094 9.49783 109.503 8.11553 108.789 6.78767C108.076 5.43805 107.24 4.17548 106.281 3H102.034C104.219 5.65573 105.78 8.36589 106.716 11.1304C107.653 13.895 108.143 16.714 108.187 19.5874C108.143 22.4391 107.653 25.2581 106.716 28.0444ZM102.876 19.5516C102.876 21.322 102.69 22.9393 102.319 24.4037C101.969 25.8462 101.412 27.0811 100.647 28.1084C99.9038 29.1356 98.9639 29.9334 97.8273 30.5016C96.6906 31.0699 95.3463 31.354 93.7944 31.354C92.2426 31.354 90.8982 31.0808 89.7616 30.5344C88.625 29.9662 87.6851 29.1793 86.9421 28.1739C86.199 27.1685 85.6415 25.9555 85.2698 24.5349C84.8984 23.1142 84.7126 21.5296 84.7126 19.7811C84.7126 17.9889 84.8875 16.3496 85.2373 14.8634C85.5867 13.3772 86.1333 12.0986 86.8764 11.0276C87.6197 9.95665 88.5596 9.13704 89.6962 8.56878C90.8544 7.97866 92.2207 7.68359 93.7944 7.68359C95.3243 7.68359 96.6578 7.96771 97.7944 8.53599C98.9311 9.10425 99.8709 9.91294 100.614 10.962C101.379 12.0111 101.947 13.2679 102.319 14.7323C102.69 16.1748 102.876 17.7812 102.876 19.5516ZM88.4829 19.5516C88.4829 20.7537 88.5705 21.8684 88.7454 22.8956C88.9203 23.9229 89.2153 24.819 89.6305 25.584C89.6888 25.6881 89.7494 25.7892 89.8128 25.8873C89.8849 25.9989 89.9602 26.1065 90.0389 26.2104L95.2324 11.2782C94.7964 11.1549 94.3171 11.0932 93.7944 11.0932C92.7889 11.0932 91.9476 11.3117 91.2699 11.7489C90.5923 12.186 90.046 12.787 89.6305 13.552C89.2153 14.2951 88.9203 15.1913 88.7454 16.2404C88.5705 17.2676 88.4829 18.3714 88.4829 19.5516ZM97.6045 13.0303C97.6449 13.0883 97.6844 13.1475 97.7229 13.2078C97.7935 13.3186 97.8611 13.4333 97.9255 13.552C98.341 14.2951 98.636 15.1913 98.8109 16.2404C98.9855 17.2676 99.0731 18.3714 99.0731 19.5516C99.0731 20.7537 98.9855 21.8684 98.8109 22.8956C98.636 23.9229 98.341 24.819 97.9255 25.584C97.5103 26.3271 96.9638 26.9172 96.2861 27.3543C95.6087 27.7696 94.7781 27.9772 93.7944 27.9772C93.3103 27.9772 92.864 27.9291 92.4559 27.8327L97.6045 13.0303ZM45.2834 11.7488H49.0177V8.01489H45.2834V11.7488ZM49.0177 13.5378V27.98H50.8185V31.1023H43.3815V27.98H45.2825V16.6602H43.3815V13.5378H49.0177Z" fill="black"/>
</svg>
