<svg width="120" height="40" viewBox="0 0 120 40" fill="none" xmlns="http://www.w3.org/2000/svg">
<path fill-rule="evenodd" clip-rule="evenodd" d="M10.6276 25.7831C14.0259 25.7831 16.7808 23.0282 16.7808 19.6299C16.7808 18.3347 16.3807 17.133 15.6973 16.1417L19.6963 12.1426C20.0337 11.8052 19.8414 11.223 19.3724 11.1353C18.8678 11.0411 18.3654 10.9322 17.8659 10.8086C16.8563 10.5587 15.8585 10.2488 14.8781 9.87892L14.7861 9.84404C14.6088 9.77637 14.4321 9.70674 14.2559 9.63515C13.1239 9.22414 11.9023 9 10.6283 9C7.6959 9 5.04087 10.1876 3.11791 12.108C1.19165 14.0318 0 16.6909 0 19.6284C0 20.777 0.182217 21.8831 0.519321 22.9193C0.701239 23.4785 1.35709 23.6898 1.86635 23.3958C2.2972 23.147 2.47047 22.6186 2.32675 22.1423C1.43343 19.182 2.15652 15.8382 4.49601 13.4988C7.614 10.3808 12.5159 10.1339 15.9163 12.7582L14.1149 14.5596C13.1237 13.8765 11.9224 13.4766 10.6276 13.4766C7.22924 13.4766 4.47433 16.2315 4.47433 19.6299C4.47433 20.9246 4.87424 22.126 5.55729 23.1172L1.55898 27.1155C1.22158 27.4529 1.41387 28.0352 1.88292 28.1228C2.38749 28.217 2.88986 28.3259 3.38935 28.4495C4.399 28.6994 5.39684 29.0093 6.37721 29.3792L6.46915 29.4141C6.64649 29.4818 6.82324 29.5514 6.99942 29.623C8.13139 30.0339 9.35301 30.2581 10.6269 30.2581C13.5397 30.2581 16.1788 29.0864 18.0985 27.1887L18.1437 27.1437C20.0662 25.2205 21.2553 22.564 21.2553 19.6298C21.2553 18.4816 21.0733 17.376 20.7364 16.3402C20.5545 15.7805 19.898 15.5689 19.3882 15.8632C18.957 16.1122 18.7836 16.6411 18.9274 17.1178C19.8204 20.0779 19.0972 23.4214 16.7579 25.7607C13.64 28.8787 8.73808 29.1255 5.33767 26.5012L7.13932 24.6995C8.1307 25.383 9.33242 25.7831 10.6276 25.7831ZM14.7126 19.6296C14.7126 21.9467 12.8343 23.825 10.5172 23.825C9.79386 23.825 9.1133 23.642 8.51924 23.3196L14.2072 17.6317C14.5295 18.2257 14.7126 18.9063 14.7126 19.6296ZM6.32179 19.6296C6.32179 17.3125 8.2001 15.4342 10.5172 15.4342C11.2981 15.4342 12.0292 15.6476 12.6554 16.0192L6.90674 21.7677C6.53515 21.1416 6.32179 20.4105 6.32179 19.6296ZM55.5384 25.1207H54.2341V14.8238H55.5384V18.5857L55.3599 19.6977H55.6345C55.9365 18.5857 56.6916 18.0502 58.0783 18.0502C59.8493 18.0502 60.6593 18.9563 60.6593 20.7961V25.1207H59.2178L59.4924 21.0706C59.5747 19.7114 58.9295 19.2035 57.6938 19.2035C56.2385 19.2035 55.5384 20.0821 55.5384 21.5237V25.1207ZM29.1727 16.6361V15.5103H36.1196V18.3523L29.1315 23.7066V23.9812H36.3668V25.1207H28.9256V22.2651L35.9137 16.9107V16.6361H29.1727ZM42.7573 22.32H44.0478C43.8419 24.2009 42.771 25.3267 40.7803 25.3267C38.4875 25.3267 37.2382 23.9263 37.2382 21.6885C37.2382 19.4506 38.4463 18.0502 40.643 18.0502C42.7024 18.0502 43.7458 19.2858 43.7458 21.4688H38.5287C38.5287 23.0888 38.9406 24.2284 40.7803 24.2284C42.0846 24.2284 42.6337 23.5694 42.7573 22.32ZM38.6523 20.5764H42.4003C42.3866 19.7252 41.8237 19.1348 40.6705 19.1348C39.5172 19.1348 38.8857 19.6153 38.6523 20.5764ZM45.3714 28.2785H46.6757V24.7912L46.5384 23.5419H46.813C47.1562 24.654 47.925 25.3267 49.4215 25.3267C51.5221 25.3267 52.6753 23.9263 52.6753 21.6885C52.6753 19.4506 51.5221 18.0502 49.4215 18.0502C47.98 18.0502 47.1562 18.7229 46.813 19.835H46.5384L46.6757 18.2562H45.3714V28.2785ZM49.1607 24.2009C47.6367 24.2009 46.7443 23.1712 46.7443 21.6747C46.7443 20.1782 47.5132 19.1486 49.1607 19.1486C50.6297 19.1486 51.3711 20.0547 51.3711 21.6747C51.3711 23.2948 50.6297 24.2009 49.1607 24.2009ZM62.8954 18.2562H61.5911L63.5955 25.1207H65.0234L64.5703 26.5486C64.4742 26.9193 64.433 26.9467 64.0486 26.933L61.7284 26.9055V28.2098L63.774 28.0313C65.092 27.9215 65.7098 27.0978 66.0393 25.917L68.3047 18.2562H67.0004L65.0783 24.9148H64.8037L62.8954 18.2562ZM70.796 25.1207H69.4917V18.2562H70.796L70.6587 19.6977H70.9332C71.2216 18.5857 71.8394 18.2562 73.0201 18.2562H74.242V19.533L72.7455 19.3957C71.455 19.2858 70.796 20.0684 70.796 21.5237V25.1207ZM83.6918 24.2009C81.6324 24.2009 80.6027 22.9241 80.6027 20.3155C80.6027 17.707 81.5775 16.4302 83.4858 16.4302C85.1333 16.4302 86.0395 17.2677 86.2317 19.2035H87.5771C87.3575 16.54 85.9708 15.3044 83.4996 15.3044C80.7125 15.3044 79.271 16.9793 79.271 20.3155C79.271 23.6517 80.7675 25.3267 83.7055 25.3267C86.3003 25.3267 87.7693 24.0911 87.989 21.4139H86.6436C86.4514 23.3634 85.4628 24.2009 83.6918 24.2009ZM88.8739 14.8238H90.0683C91.2902 14.8238 91.8806 15.4142 91.8806 16.6361V24.0087H94.036V25.1207H88.462V24.0087H90.6312V16.2242C90.6312 15.8398 90.59 15.7437 90.2193 15.8123L88.8739 16.0595V14.8238ZM98.2852 18.0502C96.0886 18.0502 94.7156 19.4506 94.7156 21.6885C94.7156 23.9263 96.0886 25.3267 98.2852 25.3267C100.496 25.3267 101.869 23.9263 101.869 21.6885C101.869 19.4506 100.496 18.0502 98.2852 18.0502ZM98.2852 24.2284C96.7887 24.2284 96.0062 23.3222 96.0062 21.6885C96.0062 20.0547 96.7887 19.1486 98.2852 19.1486C99.7954 19.1486 100.578 20.0547 100.578 21.6885C100.578 23.3222 99.7954 24.2284 98.2852 24.2284ZM103.195 18.2562H104.636L104.362 22.3063C104.279 23.638 104.925 24.1597 106.16 24.1597C107.588 24.1597 108.302 23.281 108.316 21.9218V18.2562H109.62V23.6105C109.62 23.995 109.661 24.0911 110.032 24.0224L110.814 23.8851V25.1207H110.101C109.126 25.1207 108.481 24.5167 108.481 23.638L108.206 23.6517C107.904 24.7638 107.053 25.3267 105.776 25.3267C104.005 25.3267 103.195 24.4206 103.195 22.5808V18.2562ZM118.806 14.8238H117.501V18.5857L117.639 19.835H117.364C117.034 18.7229 116.266 18.0502 114.755 18.0502C112.669 18.0502 111.502 19.4506 111.502 21.6885C111.502 23.9263 112.669 25.3267 114.755 25.3267C116.197 25.3267 117.034 24.654 117.364 23.5419H117.639C117.639 24.448 118.339 25.1207 119.286 25.1207H120V23.8851L119.217 24.0224C118.833 24.0911 118.806 23.995 118.806 23.6105V14.8238ZM115.03 19.176C116.54 19.176 117.433 20.2057 117.433 21.6885C117.433 23.1712 116.678 24.1872 115.03 24.1872C113.547 24.1872 112.806 23.2948 112.806 21.6885C112.806 20.0821 113.547 19.176 115.03 19.176Z" fill="url(#paint0_radial_19274_33753)"/>
<defs>
<radialGradient id="paint0_radial_19274_33753" cx="0" cy="0" r="1" gradientUnits="userSpaceOnUse" gradientTransform="translate(59.9999 19.6291) scale(75.2216 44.5378)">
<stop stop-color="white"/>
<stop offset="1" stop-color="#505050"/>
</radialGradient>
</defs>
</svg>
