<svg width="260" height="71" viewBox="0 0 260 71" fill="none" xmlns="http://www.w3.org/2000/svg"><path d="M156.072 15.7461C161.112 15.7461 164.909 17.667 167.461 21.5098C170.014 25.3525 171.289 30.6709 171.289 37.4648C171.289 44.4988 169.97 49.9801 167.333 53.9082C164.695 57.8366 160.854 59.8007 155.811 59.8008C153.328 59.8668 150.871 59.2747 148.69 58.0849C146.588 56.8234 144.917 54.9538 143.897 52.7236C143.242 51.3547 142.726 49.923 142.358 48.4502H141.919V70.542H129.871V16.9053H140.161L141.735 28.1592H142.12C142.983 24.3694 144.337 21.5195 146.182 19.6103C148.673 17.0339 151.97 15.7462 156.072 15.7461ZM211.912 15.7461C216.195 15.742 219.743 16.576 222.556 18.249C225.311 19.8611 227.513 22.2687 228.875 25.1553C230.33 28.3239 231.05 31.7804 230.981 35.2666V37.8623C230.981 38.656 230.921 39.6394 230.805 40.8115H202.381C202.705 43.3209 203.438 45.2568 204.604 46.6123C206.212 48.4887 208.654 49.4267 211.931 49.4267C214.687 49.4267 216.651 48.8403 217.823 47.668C218.987 46.4933 219.829 45.0376 220.266 43.4424L230.646 46.3496C229.971 48.8027 228.853 51.1122 227.349 53.164C225.768 55.2538 223.679 56.904 221.279 57.957C218.727 59.1291 215.548 59.7158 211.741 59.7158C207.341 59.7121 203.545 58.7878 200.354 56.9433C197.183 55.1259 194.614 52.4192 192.965 49.1582C191.163 45.4987 190.273 41.4577 190.37 37.3799C190.37 30.6347 192.275 25.3426 196.086 21.5039C199.896 17.6653 205.172 15.7462 211.912 15.7461ZM107.273 15.916C113.595 15.916 118.163 17.3807 120.977 20.3115C123.789 23.2424 125.195 27.3771 125.195 32.7139V58.5361H114.998L113.447 48.3389H113.038C112.488 50.6627 111.463 52.8479 110.027 54.7568C107.597 57.8624 104.125 59.415 99.6113 59.415C95.972 59.4275 92.9511 58.4326 90.5498 56.4297C88.148 54.4272 86.9473 51.3737 86.9473 47.2705C86.9431 43.265 88.1439 40.041 90.5498 37.5986C92.9553 35.1562 96.9121 33.9346 102.42 33.9346H113.24V32.8232C113.24 30.5946 112.721 28.9028 111.701 27.6816C110.671 26.4606 109.014 25.8506 106.73 25.8506C104.994 25.77 103.283 26.2984 101.895 27.3457C100.674 28.347 99.8593 30.0469 99.4521 32.4443L88.1992 30.8633C88.4956 28.1479 89.3635 25.5262 90.7451 23.1699C92.1897 20.829 94.3044 18.9762 96.8145 17.8515C99.5095 16.5612 102.996 15.9161 107.273 15.916ZM41.6807 48.3642V58.5732H0V48.3642H41.6807ZM186.851 58.5674H174.804V16.8877H186.851V58.5674ZM84.1367 27.0849L61.0186 48.249L61.0557 48.3642H84.5088V58.5625H46.3457V48.3642L69.2373 27.1826L69.2012 27.0849H47.0479V16.8877H84.1367V27.0849ZM246.363 28.1416H246.717C247.449 24.7671 248.52 22.2162 249.929 20.4902C251.891 18.0885 254.574 16.8877 257.977 16.8877H259.998V28.8369H255.425C252.03 28.8369 249.701 29.5562 248.439 30.9931C247.178 32.4301 246.547 34.4958 246.547 37.1904V58.5625H234.499V16.8877H244.788L246.363 28.1416ZM102.615 41.8545C102.085 41.8255 101.555 41.9043 101.057 42.0859C100.558 42.2674 100.102 42.5475 99.7148 42.9101C99.3572 43.2831 99.0789 43.7253 98.8975 44.209C98.716 44.6929 98.6338 45.2093 98.6582 45.7256C98.6447 46.273 98.7522 46.8172 98.9727 47.3183C99.1931 47.8195 99.5223 48.2659 99.9346 48.626C100.781 49.3872 102.292 49.7676 104.466 49.7676C107.103 49.7675 109.222 49.0962 110.84 47.7471C111.614 47.1251 112.235 46.3334 112.654 45.4336C113.073 44.5337 113.28 43.5491 113.258 42.5566V41.8545H102.615ZM150.699 26.5537C147.948 26.5334 145.794 27.4406 144.239 29.2764C142.684 31.1123 141.907 33.7588 141.907 37.2148V38.0088C141.903 41.4115 142.68 44.0919 144.239 46.0498C145.004 47.0192 145.99 47.7928 147.113 48.3056C148.236 48.8184 149.466 49.0559 150.699 48.999C153.691 48.999 155.889 47.9816 157.294 45.9463H157.306C158.714 43.9231 159.416 41.1221 159.407 37.5439C159.407 34.0842 158.717 31.3876 157.337 29.4541C155.957 27.5205 153.744 26.5537 150.699 26.5537ZM211.564 25.6806C208.459 25.6766 206.114 26.6127 204.53 28.4892C203.534 29.7756 202.869 31.2876 202.595 32.8916H219.875C219.22 28.084 216.449 25.6806 211.564 25.6806ZM180.956 0.0888528L180.963 0.0947121C181.862 0.0538914 182.761 0.201452 183.601 0.527329C184.44 0.853253 185.203 1.35107 185.84 1.98827C186.476 2.62543 186.973 3.38861 187.298 4.2285C187.623 5.06832 187.769 5.96664 187.728 6.8662C187.761 7.77136 187.612 8.67472 187.287 9.52049C186.963 10.3661 186.471 11.1375 185.841 11.7881C185.205 12.432 184.443 12.9373 183.603 13.2705C182.762 13.6037 181.86 13.7578 180.956 13.7236C180.047 13.7568 179.139 13.6022 178.292 13.2695C177.445 12.9368 176.675 12.4333 176.031 11.79C175.388 11.1467 174.884 10.3772 174.55 9.53026C174.216 8.68324 174.061 7.77593 174.094 6.8662C174.06 5.9624 174.215 5.06148 174.548 4.22069C174.881 3.37983 175.386 2.61708 176.029 1.98143C176.682 1.35209 177.454 0.860254 178.3 0.535142C179.146 0.210015 180.05 0.058085 180.956 0.0888528Z" fill="white" style="fill:white;fill-opacity:1;"/></svg>